<svg xmlns="http://www.w3.org/2000/svg" xmlns:xlink="http://www.w3.org/1999/xlink" width="1140" height="211pt" viewBox="0 0 855 211"><g id="graph0" class="graph" transform="scale(1 1) rotate(0) translate(4 207)"><title>dependencies</title><polygon fill="#fff" stroke="transparent" points="-4 4 -4 -207 851 -207 851 4 -4 4"/><text x="402.509" y="-42.4" fill="#000" font-family="sans-serif" font-size="14" font-weight="bold" text-anchor="start">Legend</text><polygon fill="#ffffb3" stroke="transparent" points="189.5 -10 189.5 -30 209.5 -30 209.5 -10 189.5 -10"/><text x="213.129" y="-15.4" fill="#000" font-family="sans-serif" font-size="14" text-anchor="start">Declarations</text><polygon fill="#8dd3c7" stroke="transparent" points="302.5 -10 302.5 -30 322.5 -30 322.5 -10 302.5 -10"/><text x="326.225" y="-15.4" fill="#000" font-family="sans-serif" font-size="14" text-anchor="start">Module</text><polygon fill="#80b1d3" stroke="transparent" points="388.5 -10 388.5 -30 408.5 -30 408.5 -10 388.5 -10"/><text x="412.281" y="-15.4" fill="#000" font-family="sans-serif" font-size="14" text-anchor="start">Bootstrap</text><polygon fill="#fdb462" stroke="transparent" points="485.5 -10 485.5 -30 505.5 -30 505.5 -10 485.5 -10"/><text x="509.173" y="-15.4" fill="#000" font-family="sans-serif" font-size="14" text-anchor="start">Providers</text><polygon fill="#fb8072" stroke="transparent" points="581.5 -10 581.5 -30 601.5 -30 601.5 -10 581.5 -10"/><text x="605.226" y="-15.4" fill="#000" font-family="sans-serif" font-size="14" text-anchor="start">Exports</text><g id="clust1" class="cluster"><title>cluster_CheckoutModule</title><polygon fill="none" stroke="#000" stroke-dasharray="1 5" points="8 -70 8 -195 839 -195 839 -70 8 -70"/></g><g id="clust2" class="cluster"><title>cluster_CheckoutModule_declarations</title><polygon fill="none" stroke="#000" points="490 -78 490 -130 831 -130 831 -78 490 -78"/></g><g id="clust5" class="cluster"><title>cluster_CheckoutModule_imports</title><polygon fill="none" stroke="#000" points="16 -78 16 -130 482 -130 482 -78 16 -78"/></g><g id="node1" class="node"><title>OrderFailedComponent</title><polygon fill="#ffffb3" stroke="#000" points="823.468 -122 674.532 -122 674.532 -86 823.468 -86 823.468 -122"/><text x="749" y="-99.8" fill="#000" font-family="Times,serif" font-size="14" text-anchor="middle">OrderFailedComponent</text></g><g id="node3" class="node"><title>CheckoutModule</title><polygon fill="#8dd3c7" stroke="#000" points="420.706 -187 417.706 -191 396.706 -191 393.706 -187 307.294 -187 307.294 -151 420.706 -151 420.706 -187"/><text x="364" y="-164.8" fill="#000" font-family="Times,serif" font-size="14" text-anchor="middle">CheckoutModule</text></g><g id="edge1" class="edge"><title>OrderFailedComponent-&gt;CheckoutModule</title><path fill="none" stroke="#000" d="M749,-122.2843C749,-143.3211 749,-175 749,-175 749,-175 430.8081,-175 430.8081,-175"/><polygon fill="#000" stroke="#000" points="430.808 -171.5 420.808 -175 430.808 -178.5 430.808 -171.5"/></g><g id="node2" class="node"><title>OrderSuccessComponent</title><polygon fill="#ffffb3" stroke="#000" points="656.291 -122 497.709 -122 497.709 -86 656.291 -86 656.291 -122"/><text x="577" y="-99.8" fill="#000" font-family="Times,serif" font-size="14" text-anchor="middle">OrderSuccessComponent</text></g><g id="edge2" class="edge"><title>OrderSuccessComponent-&gt;CheckoutModule</title><path fill="none" stroke="#000" d="M577,-122.0225C577,-139.3734 577,-163 577,-163 577,-163 430.8003,-163 430.8003,-163"/><polygon fill="#000" stroke="#000" points="430.8 -159.5 420.8 -163 430.8 -166.5 430.8 -159.5"/></g><g id="node4" class="node"><title>AddressModule</title><polygon fill="#8dd3c7" stroke="#000" points="473.922 -122 470.922 -126 449.922 -126 446.922 -122 368.078 -122 368.078 -86 473.922 -86 473.922 -122"/><text x="421" y="-99.8" fill="#000" font-family="Times,serif" font-size="14" text-anchor="middle">AddressModule</text></g><g id="edge3" class="edge"><title>AddressModule-&gt;CheckoutModule</title><path fill="none" stroke="#000" d="M394.4464,-122.1061C394.4464,-122.1061 394.4464,-140.991 394.4464,-140.991"/><polygon fill="#000" stroke="#000" points="390.946 -140.991 394.446 -150.991 397.946 -140.991 390.946 -140.991"/></g><g id="node5" class="node"><title>CartModule</title><polygon fill="#8dd3c7" stroke="#000" points="349.653 -122 346.653 -126 325.653 -126 322.653 -122 266.347 -122 266.347 -86 349.653 -86 349.653 -122"/><text x="308" y="-99.8" fill="#000" font-family="Times,serif" font-size="14" text-anchor="middle">CartModule</text></g><g id="edge4" class="edge"><title>CartModule-&gt;CheckoutModule</title><path fill="none" stroke="#000" d="M328.6115,-122.1061C328.6115,-122.1061 328.6115,-140.991 328.6115,-140.991"/><polygon fill="#000" stroke="#000" points="325.112 -140.991 328.611 -150.991 332.112 -140.991 325.112 -140.991"/></g><g id="node6" class="node"><title>PaymentModule</title><polygon fill="#8dd3c7" stroke="#000" points="248.044 -122 245.044 -126 224.044 -126 221.044 -122 139.956 -122 139.956 -86 248.044 -86 248.044 -122"/><text x="194" y="-99.8" fill="#000" font-family="Times,serif" font-size="14" text-anchor="middle">PaymentModule</text></g><g id="edge5" class="edge"><title>PaymentModule-&gt;CheckoutModule</title><path fill="none" stroke="#000" d="M194,-122.0225C194,-139.3734 194,-163 194,-163 194,-163 297.3925,-163 297.3925,-163"/><polygon fill="#000" stroke="#000" points="297.392 -166.5 307.392 -163 297.392 -159.5 297.392 -166.5"/></g><g id="node7" class="node"><title>SharedModule</title><polygon fill="#8dd3c7" stroke="#000" points="122.423 -122 119.423 -126 98.423 -126 95.423 -122 23.577 -122 23.577 -86 122.423 -86 122.423 -122"/><text x="73" y="-99.8" fill="#000" font-family="Times,serif" font-size="14" text-anchor="middle">SharedModule</text></g><g id="edge6" class="edge"><title>SharedModule-&gt;CheckoutModule</title><path fill="none" stroke="#000" d="M73,-122.2843C73,-143.3211 73,-175 73,-175 73,-175 297.2015,-175 297.2015,-175"/><polygon fill="#000" stroke="#000" points="297.202 -178.5 307.202 -175 297.201 -171.5 297.202 -178.5"/></g></g></svg>