<svg xmlns="http://www.w3.org/2000/svg" xmlns:xlink="http://www.w3.org/1999/xlink" width="862pt" height="211pt" viewBox="0 0 862 211"><g id="graph0" class="graph" transform="scale(1 1) rotate(0) translate(4 207)"><title>dependencies</title><polygon fill="#fff" stroke="transparent" points="-4 4 -4 -207 858 -207 858 4 -4 4"/><text x="406.009" y="-42.4" fill="#000" font-family="sans-serif" font-size="14" font-weight="bold" text-anchor="start">Legend</text><polygon fill="#ffffb3" stroke="transparent" points="193 -10 193 -30 213 -30 213 -10 193 -10"/><text x="216.629" y="-15.4" fill="#000" font-family="sans-serif" font-size="14" text-anchor="start">Declarations</text><polygon fill="#8dd3c7" stroke="transparent" points="306 -10 306 -30 326 -30 326 -10 306 -10"/><text x="329.725" y="-15.4" fill="#000" font-family="sans-serif" font-size="14" text-anchor="start">Module</text><polygon fill="#80b1d3" stroke="transparent" points="392 -10 392 -30 412 -30 412 -10 392 -10"/><text x="415.781" y="-15.4" fill="#000" font-family="sans-serif" font-size="14" text-anchor="start">Bootstrap</text><polygon fill="#fdb462" stroke="transparent" points="489 -10 489 -30 509 -30 509 -10 489 -10"/><text x="512.673" y="-15.4" fill="#000" font-family="sans-serif" font-size="14" text-anchor="start">Providers</text><polygon fill="#fb8072" stroke="transparent" points="585 -10 585 -30 605 -30 605 -10 585 -10"/><text x="608.726" y="-15.4" fill="#000" font-family="sans-serif" font-size="14" text-anchor="start">Exports</text><g id="clust1" class="cluster"><title>cluster_CartModule</title><polygon fill="none" stroke="#000" stroke-dasharray="1 5" points="8 -70 8 -195 846 -195 846 -70 8 -70"/></g><g id="clust2" class="cluster"><title>cluster_CartModule_declarations</title><polygon fill="none" stroke="#000" points="16 -78 16 -130 838 -130 838 -78 16 -78"/></g><g id="node1" class="node"><title>CartComponent</title><polygon fill="#ffffb3" stroke="#000" points="829.936 -122 724.064 -122 724.064 -86 829.936 -86 829.936 -122"/><text x="777" y="-99.8" fill="#000" font-family="Times,serif" font-size="14" text-anchor="middle">CartComponent</text></g><g id="node6" class="node"><title>CartModule</title><polygon fill="#8dd3c7" stroke="#000" points="520.653 -187 517.653 -191 496.653 -191 493.653 -187 437.347 -187 437.347 -151 520.653 -151 520.653 -187"/><text x="479" y="-164.8" fill="#000" font-family="Times,serif" font-size="14" text-anchor="middle">CartModule</text></g><g id="edge1" class="edge"><title>CartComponent-&gt;CartModule</title><path fill="none" stroke="#000" d="M777,-122.2843C777,-143.3211 777,-175 777,-175 777,-175 530.7494,-175 530.7494,-175"/><polygon fill="#000" stroke="#000" points="530.749 -171.5 520.749 -175 530.749 -178.5 530.749 -171.5"/></g><g id="node2" class="node"><title>EmptyCartComponent</title><polygon fill="#ffffb3" stroke="#000" points="706.269 -122 563.731 -122 563.731 -86 706.269 -86 706.269 -122"/><text x="635" y="-99.8" fill="#000" font-family="Times,serif" font-size="14" text-anchor="middle">EmptyCartComponent</text></g><g id="edge2" class="edge"><title>EmptyCartComponent-&gt;CartModule</title><path fill="none" stroke="#000" d="M635,-122.0225C635,-139.3734 635,-163 635,-163 635,-163 530.8051,-163 530.8051,-163"/><polygon fill="#000" stroke="#000" points="530.805 -159.5 520.805 -163 530.805 -166.5 530.805 -159.5"/></g><g id="node3" class="node"><title>LineItemComponent</title><polygon fill="#ffffb3" stroke="#000" points="545.147 -122 412.853 -122 412.853 -86 545.147 -86 545.147 -122"/><text x="479" y="-99.8" fill="#000" font-family="Times,serif" font-size="14" text-anchor="middle">LineItemComponent</text></g><g id="edge3" class="edge"><title>LineItemComponent-&gt;CartModule</title><path fill="none" stroke="#000" d="M479,-122.1061C479,-122.1061 479,-140.991 479,-140.991"/><polygon fill="#000" stroke="#000" points="475.5 -140.991 479 -150.991 482.5 -140.991 475.5 -140.991"/></g><g id="node4" class="node"><title>LineItemListComponent</title><polygon fill="#ffffb3" stroke="#000" points="394.426 -122 239.574 -122 239.574 -86 394.426 -86 394.426 -122"/><text x="317" y="-99.8" fill="#000" font-family="Times,serif" font-size="14" text-anchor="middle">LineItemListComponent</text></g><g id="edge4" class="edge"><title>LineItemListComponent-&gt;CartModule</title><path fill="none" stroke="#000" d="M317,-122.0225C317,-139.3734 317,-163 317,-163 317,-163 427.281,-163 427.281,-163"/><polygon fill="#000" stroke="#000" points="427.281 -166.5 437.281 -163 427.281 -159.5 427.281 -166.5"/></g><g id="node5" class="node"><title>OrderTotalSummaryComponent</title><polygon fill="#ffffb3" stroke="#000" points="221.962 -122 24.038 -122 24.038 -86 221.962 -86 221.962 -122"/><text x="123" y="-99.8" fill="#000" font-family="Times,serif" font-size="14" text-anchor="middle">OrderTotalSummaryComponent</text></g><g id="edge5" class="edge"><title>OrderTotalSummaryComponent-&gt;CartModule</title><path fill="none" stroke="#000" d="M123,-122.2843C123,-143.3211 123,-175 123,-175 123,-175 427.1154,-175 427.1154,-175"/><polygon fill="#000" stroke="#000" points="427.115 -178.5 437.115 -175 427.115 -171.5 427.115 -178.5"/></g></g></svg>