<svg xmlns="http://www.w3.org/2000/svg" xmlns:xlink="http://www.w3.org/1999/xlink" width="2824pt" height="211pt" viewBox="0 0 2824 211"><g id="graph0" class="graph" transform="scale(1 1) rotate(0) translate(4 207)"><title>dependencies</title><polygon fill="#fff" stroke="transparent" points="-4 4 -4 -207 2820 -207 2820 4 -4 4"/><text x="1387.009" y="-42.4" fill="#000" font-family="sans-serif" font-size="14" font-weight="bold" text-anchor="start">Legend</text><polygon fill="#ffffb3" stroke="transparent" points="1174 -10 1174 -30 1194 -30 1194 -10 1174 -10"/><text x="1197.629" y="-15.4" fill="#000" font-family="sans-serif" font-size="14" text-anchor="start">Declarations</text><polygon fill="#8dd3c7" stroke="transparent" points="1287 -10 1287 -30 1307 -30 1307 -10 1287 -10"/><text x="1310.725" y="-15.4" fill="#000" font-family="sans-serif" font-size="14" text-anchor="start">Module</text><polygon fill="#80b1d3" stroke="transparent" points="1373 -10 1373 -30 1393 -30 1393 -10 1373 -10"/><text x="1396.781" y="-15.4" fill="#000" font-family="sans-serif" font-size="14" text-anchor="start">Bootstrap</text><polygon fill="#fdb462" stroke="transparent" points="1470 -10 1470 -30 1490 -30 1490 -10 1470 -10"/><text x="1493.673" y="-15.4" fill="#000" font-family="sans-serif" font-size="14" text-anchor="start">Providers</text><polygon fill="#fb8072" stroke="transparent" points="1566 -10 1566 -30 1586 -30 1586 -10 1566 -10"/><text x="1589.726" y="-15.4" fill="#000" font-family="sans-serif" font-size="14" text-anchor="start">Exports</text><g id="clust1" class="cluster"><title>cluster_UserModule</title><polygon fill="none" stroke="#000" stroke-dasharray="1 5" points="8 -70 8 -195 2808 -195 2808 -70 8 -70"/></g><g id="clust2" class="cluster"><title>cluster_UserModule_declarations</title><polygon fill="none" stroke="#000" points="430 -78 430 -130 2800 -130 2800 -78 430 -78"/></g><g id="clust17" class="cluster"><title>cluster_UserModule_imports</title><polygon fill="none" stroke="#000" points="184 -78 184 -130 422 -130 422 -78 184 -78"/></g><g id="clust20" class="cluster"><title>cluster_UserModule_providers</title><polygon fill="none" stroke="#000" points="16 -78 16 -130 176 -130 176 -78 16 -78"/></g><g id="node1" class="node"><title>AddEditAddressComponent</title><polygon fill="#ffffb3" stroke="#000" points="2792.144 -122 2617.856 -122 2617.856 -86 2792.144 -86 2792.144 -122"/><text x="2705" y="-99.8" fill="#000" font-family="Times,serif" font-size="14" text-anchor="middle">AddEditAddressComponent</text></g><g id="node15" class="node"><title>UserModule</title><polygon fill="#8dd3c7" stroke="#000" points="1355.976 -187 1352.976 -191 1331.976 -191 1328.976 -187 1270.024 -187 1270.024 -151 1355.976 -151 1355.976 -187"/><text x="1313" y="-164.8" fill="#000" font-family="Times,serif" font-size="14" text-anchor="middle">UserModule</text></g><g id="edge1" class="edge"><title>AddEditAddressComponent-&gt;UserModule</title><path fill="none" stroke="#000" d="M2705,-122.3228C2705,-145.6602 2705,-183 2705,-183 2705,-183 1366.1862,-183 1366.1862,-183"/><polygon fill="#000" stroke="#000" points="1366.186 -179.5 1356.186 -183 1366.186 -186.5 1366.186 -179.5"/></g><g id="node2" class="node"><title>AddressesComponent</title><polygon fill="#ffffb3" stroke="#000" points="2599.363 -122 2460.637 -122 2460.637 -86 2599.363 -86 2599.363 -122"/><text x="2530" y="-99.8" fill="#000" font-family="Times,serif" font-size="14" text-anchor="middle">AddressesComponent</text></g><g id="edge2" class="edge"><title>AddressesComponent-&gt;UserModule</title><path fill="none" stroke="#000" d="M2530,-122.1554C2530,-144.3519 2530,-179 2530,-179 2530,-179 1366.3137,-179 1366.3137,-179"/><polygon fill="#000" stroke="#000" points="1366.314 -175.5 1356.314 -179 1366.314 -182.5 1366.314 -175.5"/></g><g id="node3" class="node"><title>FavoriteProductListItemComponent</title><polygon fill="#ffffb3" stroke="#000" points="2442.469 -122 2223.531 -122 2223.531 -86 2442.469 -86 2442.469 -122"/><text x="2333" y="-99.8" fill="#000" font-family="Times,serif" font-size="14" text-anchor="middle">FavoriteProductListItemComponent</text></g><g id="edge3" class="edge"><title>FavoriteProductListItemComponent-&gt;UserModule</title><path fill="none" stroke="#000" d="M2333,-122.2843C2333,-143.3211 2333,-175 2333,-175 2333,-175 1366.1766,-175 1366.1766,-175"/><polygon fill="#000" stroke="#000" points="1366.177 -171.5 1356.177 -175 1366.177 -178.5 1366.177 -171.5"/></g><g id="node4" class="node"><title>FavoriteProductsComponent</title><polygon fill="#ffffb3" stroke="#000" points="2205.479 -122 2028.521 -122 2028.521 -86 2205.479 -86 2205.479 -122"/><text x="2117" y="-99.8" fill="#000" font-family="Times,serif" font-size="14" text-anchor="middle">FavoriteProductsComponent</text></g><g id="edge4" class="edge"><title>FavoriteProductsComponent-&gt;UserModule</title><path fill="none" stroke="#000" d="M2117,-122.308C2117,-142.1455 2117,-171 2117,-171 2117,-171 1366.2265,-171 1366.2265,-171"/><polygon fill="#000" stroke="#000" points="1366.227 -167.5 1356.226 -171 1366.226 -174.5 1366.227 -167.5"/></g><g id="node5" class="node"><title>OrderDetailComponent</title><polygon fill="#ffffb3" stroke="#000" points="2010.182 -122 1861.818 -122 1861.818 -86 2010.182 -86 2010.182 -122"/><text x="1936" y="-99.8" fill="#000" font-family="Times,serif" font-size="14" text-anchor="middle">OrderDetailComponent</text></g><g id="edge5" class="edge"><title>OrderDetailComponent-&gt;UserModule</title><path fill="none" stroke="#000" d="M1936,-122.2222C1936,-140.8285 1936,-167 1936,-167 1936,-167 1366.3135,-167 1366.3135,-167"/><polygon fill="#000" stroke="#000" points="1366.314 -163.5 1356.313 -167 1366.313 -170.5 1366.314 -163.5"/></g><g id="node6" class="node"><title>OrderListItemComponent</title><polygon fill="#ffffb3" stroke="#000" points="1843.91 -122 1682.09 -122 1682.09 -86 1843.91 -86 1843.91 -122"/><text x="1763" y="-99.8" fill="#000" font-family="Times,serif" font-size="14" text-anchor="middle">OrderListItemComponent</text></g><g id="edge6" class="edge"><title>OrderListItemComponent-&gt;UserModule</title><path fill="none" stroke="#000" d="M1763,-122.0225C1763,-139.3734 1763,-163 1763,-163 1763,-163 1366.1479,-163 1366.1479,-163"/><polygon fill="#000" stroke="#000" points="1366.148 -159.5 1356.148 -163 1366.148 -166.5 1366.148 -159.5"/></g><g id="node7" class="node"><title>OrdersComponent</title><polygon fill="#ffffb3" stroke="#000" points="1664.92 -122 1545.08 -122 1545.08 -86 1664.92 -86 1664.92 -122"/><text x="1605" y="-99.8" fill="#000" font-family="Times,serif" font-size="14" text-anchor="middle">OrdersComponent</text></g><g id="edge7" class="edge"><title>OrdersComponent-&gt;UserModule</title><path fill="none" stroke="#000" d="M1605,-122.0091C1605,-138.0494 1605,-159 1605,-159 1605,-159 1366.0856,-159 1366.0856,-159"/><polygon fill="#000" stroke="#000" points="1366.086 -155.5 1356.086 -159 1366.086 -162.5 1366.086 -155.5"/></g><g id="node8" class="node"><title>OverviewComponent</title><polygon fill="#ffffb3" stroke="#000" points="1527.027 -122 1390.973 -122 1390.973 -86 1527.027 -86 1527.027 -122"/><text x="1459" y="-99.8" fill="#000" font-family="Times,serif" font-size="14" text-anchor="middle">OverviewComponent</text></g><g id="edge8" class="edge"><title>OverviewComponent-&gt;UserModule</title><path fill="none" stroke="#000" d="M1459,-122.1243C1459,-136.7832 1459,-155 1459,-155 1459,-155 1366.0152,-155 1366.0152,-155"/><polygon fill="#000" stroke="#000" points="1366.015 -151.5 1356.015 -155 1366.015 -158.5 1366.015 -151.5"/></g><g id="node9" class="node"><title>ProfileComponent</title><polygon fill="#ffffb3" stroke="#000" points="1372.933 -122 1253.067 -122 1253.067 -86 1372.933 -86 1372.933 -122"/><text x="1313" y="-99.8" fill="#000" font-family="Times,serif" font-size="14" text-anchor="middle">ProfileComponent</text></g><g id="edge9" class="edge"><title>ProfileComponent-&gt;UserModule</title><path fill="none" stroke="#000" d="M1313,-122.1061C1313,-122.1061 1313,-140.991 1313,-140.991"/><polygon fill="#000" stroke="#000" points="1309.5 -140.991 1313 -150.991 1316.5 -140.991 1309.5 -140.991"/></g><g id="node10" class="node"><title>ProfileEmailComponent</title><polygon fill="#ffffb3" stroke="#000" points="1235.371 -122 1082.629 -122 1082.629 -86 1235.371 -86 1235.371 -122"/><text x="1159" y="-99.8" fill="#000" font-family="Times,serif" font-size="14" text-anchor="middle">ProfileEmailComponent</text></g><g id="edge10" class="edge"><title>ProfileEmailComponent-&gt;UserModule</title><path fill="none" stroke="#000" d="M1159,-122.1243C1159,-136.7832 1159,-155 1159,-155 1159,-155 1259.6926,-155 1259.6926,-155"/><polygon fill="#000" stroke="#000" points="1259.693 -158.5 1269.693 -155 1259.693 -151.5 1259.693 -158.5"/></g><g id="node11" class="node"><title>ProfilePasswordComponent</title><polygon fill="#ffffb3" stroke="#000" points="1064.586 -122 891.414 -122 891.414 -86 1064.586 -86 1064.586 -122"/><text x="978" y="-99.8" fill="#000" font-family="Times,serif" font-size="14" text-anchor="middle">ProfilePasswordComponent</text></g><g id="edge11" class="edge"><title>ProfilePasswordComponent-&gt;UserModule</title><path fill="none" stroke="#000" d="M978,-122.0091C978,-138.0494 978,-159 978,-159 978,-159 1259.8904,-159 1259.8904,-159"/><polygon fill="#000" stroke="#000" points="1259.89 -162.5 1269.89 -159 1259.89 -155.5 1259.89 -162.5"/></g><g id="node12" class="node"><title>ReturnListItemComponent</title><polygon fill="#ffffb3" stroke="#000" points="873.37 -122 706.63 -122 706.63 -86 873.37 -86 873.37 -122"/><text x="790" y="-99.8" fill="#000" font-family="Times,serif" font-size="14" text-anchor="middle">ReturnListItemComponent</text></g><g id="edge12" class="edge"><title>ReturnListItemComponent-&gt;UserModule</title><path fill="none" stroke="#000" d="M790,-122.0225C790,-139.3734 790,-163 790,-163 790,-163 1259.7558,-163 1259.7558,-163"/><polygon fill="#000" stroke="#000" points="1259.756 -166.5 1269.756 -163 1259.756 -159.5 1259.756 -166.5"/></g><g id="node13" class="node"><title>ReturnsComponent</title><polygon fill="#ffffb3" stroke="#000" points="688.38 -122 563.62 -122 563.62 -86 688.38 -86 688.38 -122"/><text x="626" y="-99.8" fill="#000" font-family="Times,serif" font-size="14" text-anchor="middle">ReturnsComponent</text></g><g id="edge13" class="edge"><title>ReturnsComponent-&gt;UserModule</title><path fill="none" stroke="#000" d="M626,-122.2222C626,-140.8285 626,-167 626,-167 626,-167 1259.7648,-167 1259.7648,-167"/><polygon fill="#000" stroke="#000" points="1259.765 -170.5 1269.765 -167 1259.765 -163.5 1259.765 -170.5"/></g><g id="node14" class="node"><title>UserComponent</title><polygon fill="#ffffb3" stroke="#000" points="545.759 -122 438.241 -122 438.241 -86 545.759 -86 545.759 -122"/><text x="492" y="-99.8" fill="#000" font-family="Times,serif" font-size="14" text-anchor="middle">UserComponent</text></g><g id="edge14" class="edge"><title>UserComponent-&gt;UserModule</title><path fill="none" stroke="#000" d="M492,-122.308C492,-142.1455 492,-171 492,-171 492,-171 1260.0154,-171 1260.0154,-171"/><polygon fill="#000" stroke="#000" points="1260.015 -174.5 1270.015 -171 1260.015 -167.5 1260.015 -174.5"/></g><g id="node16" class="node"><title>AddressModule</title><polygon fill="#8dd3c7" stroke="#000" points="413.922 -122 410.922 -126 389.922 -126 386.922 -122 308.078 -122 308.078 -86 413.922 -86 413.922 -122"/><text x="361" y="-99.8" fill="#000" font-family="Times,serif" font-size="14" text-anchor="middle">AddressModule</text></g><g id="edge15" class="edge"><title>AddressModule-&gt;UserModule</title><path fill="none" stroke="#000" d="M361,-122.2843C361,-143.3211 361,-175 361,-175 361,-175 1259.9334,-175 1259.9334,-175"/><polygon fill="#000" stroke="#000" points="1259.934 -178.5 1269.933 -175 1259.933 -171.5 1259.934 -178.5"/></g><g id="node17" class="node"><title>SharedModule</title><polygon fill="#8dd3c7" stroke="#000" points="290.423 -122 287.423 -126 266.423 -126 263.423 -122 191.577 -122 191.577 -86 290.423 -86 290.423 -122"/><text x="241" y="-99.8" fill="#000" font-family="Times,serif" font-size="14" text-anchor="middle">SharedModule</text></g><g id="edge16" class="edge"><title>SharedModule-&gt;UserModule</title><path fill="none" stroke="#000" d="M241,-122.1554C241,-144.3519 241,-179 241,-179 241,-179 1259.9823,-179 1259.9823,-179"/><polygon fill="#000" stroke="#000" points="1259.982 -182.5 1269.982 -179 1259.982 -175.5 1259.982 -182.5"/></g><g id="node18" class="node"><title>AddressService</title><ellipse cx="96" cy="-104" fill="#fdb462" stroke="#000" rx="71.766" ry="18"/><text x="96" y="-99.8" fill="#000" font-family="Times,serif" font-size="14" text-anchor="middle">AddressService</text></g><g id="edge17" class="edge"><title>AddressService-&gt;UserModule</title><path fill="none" stroke="#000" d="M96,-122.3228C96,-145.6602 96,-183 96,-183 96,-183 1259.6863,-183 1259.6863,-183"/><polygon fill="#000" stroke="#000" points="1259.686 -186.5 1269.686 -183 1259.686 -179.5 1259.686 -186.5"/></g></g></svg>