<svg xmlns="http://www.w3.org/2000/svg" xmlns:xlink="http://www.w3.org/1999/xlink" width="1360" height="284pt" viewBox="0 0 1020 284"><g id="graph0" class="graph" transform="scale(1 1) rotate(0) translate(4 280)"><title>dependencies</title><polygon fill="#fff" stroke="transparent" points="-4 4 -4 -280 1016 -280 1016 4 -4 4"/><text x="485.009" y="-42.4" fill="#000" font-family="sans-serif" font-size="14" font-weight="bold" text-anchor="start">Legend</text><polygon fill="#ffffb3" stroke="transparent" points="272 -10 272 -30 292 -30 292 -10 272 -10"/><text x="295.629" y="-15.4" fill="#000" font-family="sans-serif" font-size="14" text-anchor="start">Declarations</text><polygon fill="#8dd3c7" stroke="transparent" points="385 -10 385 -30 405 -30 405 -10 385 -10"/><text x="408.725" y="-15.4" fill="#000" font-family="sans-serif" font-size="14" text-anchor="start">Module</text><polygon fill="#80b1d3" stroke="transparent" points="471 -10 471 -30 491 -30 491 -10 471 -10"/><text x="494.781" y="-15.4" fill="#000" font-family="sans-serif" font-size="14" text-anchor="start">Bootstrap</text><polygon fill="#fdb462" stroke="transparent" points="568 -10 568 -30 588 -30 588 -10 568 -10"/><text x="591.673" y="-15.4" fill="#000" font-family="sans-serif" font-size="14" text-anchor="start">Providers</text><polygon fill="#fb8072" stroke="transparent" points="664 -10 664 -30 684 -30 684 -10 664 -10"/><text x="687.726" y="-15.4" fill="#000" font-family="sans-serif" font-size="14" text-anchor="start">Exports</text><g id="clust1" class="cluster"><title>cluster_SharedModule</title><polygon fill="none" stroke="#000" stroke-dasharray="1 5" points="8 -70 8 -268 1004 -268 1004 -70 8 -70"/></g><g id="clust2" class="cluster"><title>cluster_SharedModule_declarations</title><polygon fill="none" stroke="#000" points="16 -78 16 -130 996 -130 996 -78 16 -78"/></g><g id="clust11" class="cluster"><title>cluster_SharedModule_exports</title><polygon fill="none" stroke="#000" points="82 -208 82 -260 908 -260 908 -208 82 -208"/></g><g id="node1" class="node"><title>HumanizePipe</title><polygon fill="#ffffb3" stroke="#000" points="988.42 -122 889.58 -122 889.58 -86 988.42 -86 988.42 -122"/><text x="939" y="-99.8" fill="#000" font-family="Times,serif" font-size="14" text-anchor="middle">HumanizePipe</text></g><g id="node8" class="node"><title>SharedModule</title><polygon fill="#8dd3c7" stroke="#000" points="578.423 -187 575.423 -191 554.423 -191 551.423 -187 479.577 -187 479.577 -151 578.423 -151 578.423 -187"/><text x="529" y="-164.8" fill="#000" font-family="Times,serif" font-size="14" text-anchor="middle">SharedModule</text></g><g id="edge1" class="edge"><title>HumanizePipe-&gt;SharedModule</title><path fill="none" stroke="#000" d="M894.875,-122.1061C894.875,-141.3391 894.875,-169 894.875,-169 894.875,-169 588.3435,-169 588.3435,-169"/><polygon fill="#000" stroke="#000" points="588.344 -165.5 578.343 -169 588.343 -172.5 588.344 -165.5"/></g><g id="node2" class="node"><title>InnerIproductComponent</title><polygon fill="#ffffb3" stroke="#000" points="872.295 -122 713.705 -122 713.705 -86 872.295 -86 872.295 -122"/><text x="793" y="-99.8" fill="#000" font-family="Times,serif" font-size="14" text-anchor="middle">InnerIproductComponent</text></g><g id="edge2" class="edge"><title>InnerIproductComponent-&gt;SharedModule</title><path fill="none" stroke="#000" d="M746.7148,-122.0225C746.7148,-139.3734 746.7148,-163 746.7148,-163 746.7148,-163 588.4028,-163 588.4028,-163"/><polygon fill="#000" stroke="#000" points="588.403 -159.5 578.403 -163 588.403 -166.5 588.403 -159.5"/></g><g id="node3" class="node"><title>KeysPipe</title><polygon fill="#ffffb3" stroke="#000" points="695.654 -122 626.346 -122 626.346 -86 695.654 -86 695.654 -122"/><text x="661" y="-99.8" fill="#000" font-family="Times,serif" font-size="14" text-anchor="middle">KeysPipe</text></g><g id="edge3" class="edge"><title>KeysPipe-&gt;SharedModule</title><path fill="none" stroke="#000" d="M657.5415,-122.2396C657.5415,-137.5706 657.5415,-157 657.5415,-157 657.5415,-157 588.3299,-157 588.3299,-157"/><polygon fill="#000" stroke="#000" points="588.33 -153.5 578.33 -157 588.33 -160.5 588.33 -153.5"/></g><g id="node4" class="node"><title>ProductSliderComponent</title><polygon fill="#ffffb3" stroke="#000" points="608.32 -122 449.68 -122 449.68 -86 608.32 -86 608.32 -122"/><text x="529" y="-99.8" fill="#000" font-family="Times,serif" font-size="14" text-anchor="middle">ProductSliderComponent</text></g><g id="edge4" class="edge"><title>ProductSliderComponent-&gt;SharedModule</title><path fill="none" stroke="#000" d="M529,-122.1061C529,-122.1061 529,-140.991 529,-140.991"/><polygon fill="#000" stroke="#000" points="525.5 -140.991 529 -150.991 532.5 -140.991 525.5 -140.991"/></g><g id="node5" class="node"><title>ReversePipe</title><polygon fill="#ffffb3" stroke="#000" points="431.973 -122 346.027 -122 346.027 -86 431.973 -86 431.973 -122"/><text x="389" y="-99.8" fill="#000" font-family="Times,serif" font-size="14" text-anchor="middle">ReversePipe</text></g><g id="edge5" class="edge"><title>ReversePipe-&gt;SharedModule</title><path fill="none" stroke="#000" d="M425.625,-122.2396C425.625,-137.5706 425.625,-157 425.625,-157 425.625,-157 469.7346,-157 469.7346,-157"/><polygon fill="#000" stroke="#000" points="469.735 -160.5 479.735 -157 469.735 -153.5 469.735 -160.5"/></g><g id="node6" class="node"><title>SavedAddressComponent</title><polygon fill="#ffffb3" stroke="#000" points="327.916 -122 166.084 -122 166.084 -86 327.916 -86 327.916 -122"/><text x="247" y="-99.8" fill="#000" font-family="Times,serif" font-size="14" text-anchor="middle">SavedAddressComponent</text></g><g id="edge6" class="edge"><title>SavedAddressComponent-&gt;SharedModule</title><path fill="none" stroke="#000" d="M282.125,-122.0225C282.125,-139.3734 282.125,-163 282.125,-163 282.125,-163 469.6345,-163 469.6345,-163"/><polygon fill="#000" stroke="#000" points="469.635 -166.5 479.635 -163 469.635 -159.5 469.635 -166.5"/></g><g id="node7" class="node"><title>ZoomableDirective</title><polygon fill="#ffffb3" stroke="#000" points="148.346 -122 23.654 -122 23.654 -86 148.346 -86 148.346 -122"/><text x="86" y="-99.8" fill="#000" font-family="Times,serif" font-size="14" text-anchor="middle">ZoomableDirective</text></g><g id="edge7" class="edge"><title>ZoomableDirective-&gt;SharedModule</title><path fill="none" stroke="#000" d="M119.125,-122.1061C119.125,-141.3391 119.125,-169 119.125,-169 119.125,-169 469.5595,-169 469.5595,-169"/><polygon fill="#000" stroke="#000" points="469.56 -172.5 479.56 -169 469.56 -165.5 469.56 -172.5"/></g><g id="node9" class="node"><title>HumanizePipe</title><polygon fill="#fb8072" stroke="#000" points="899.919 -252 798.081 -252 798.081 -216 899.919 -216 899.919 -252"/><text x="849" y="-229.8" fill="#000" font-family="Times,serif" font-size="14" text-anchor="middle">HumanizePipe</text></g><g id="edge8" class="edge"><title>SharedModule-&gt;HumanizePipe</title><path fill="none" stroke="#000" stroke-dasharray="5 2" d="M578.5195,-175C665.1506,-175 835.0938,-175 835.0938,-175 835.0938,-175 835.0938,-205.9775 835.0938,-205.9775"/><polygon fill="#000" stroke="#000" points="831.594 -205.977 835.094 -215.977 838.594 -205.977 831.594 -205.977"/></g><g id="node10" class="node"><title>KeysPipe</title><polygon fill="#fb8072" stroke="#000" points="779.654 -252 706.346 -252 706.346 -216 779.654 -216 779.654 -252"/><text x="743" y="-229.8" fill="#000" font-family="Times,serif" font-size="14" text-anchor="middle">KeysPipe</text></g><g id="edge9" class="edge"><title>SharedModule-&gt;KeysPipe</title><path fill="none" stroke="#000" stroke-dasharray="5 2" d="M578.4967,-181C632.1283,-181 710.138,-181 710.138,-181 710.138,-181 710.138,-205.7604 710.138,-205.7604"/><polygon fill="#000" stroke="#000" points="706.638 -205.76 710.138 -215.76 713.638 -205.76 706.638 -205.76"/></g><g id="node11" class="node"><title>ProductSliderComponent</title><polygon fill="#fb8072" stroke="#000" points="688.82 -252 527.18 -252 527.18 -216 688.82 -216 688.82 -252"/><text x="608" y="-229.8" fill="#000" font-family="Times,serif" font-size="14" text-anchor="middle">ProductSliderComponent</text></g><g id="edge10" class="edge"><title>SharedModule-&gt;ProductSliderComponent</title><path fill="none" stroke="#000" stroke-dasharray="5 2" d="M552.6506,-187.1061C552.6506,-187.1061 552.6506,-205.991 552.6506,-205.991"/><polygon fill="#000" stroke="#000" points="549.151 -205.991 552.651 -215.991 556.151 -205.991 549.151 -205.991"/></g><g id="node12" class="node"><title>ReversePipe</title><polygon fill="#fb8072" stroke="#000" points="508.975 -252 419.025 -252 419.025 -216 508.975 -216 508.975 -252"/><text x="464" y="-229.8" fill="#000" font-family="Times,serif" font-size="14" text-anchor="middle">ReversePipe</text></g><g id="edge11" class="edge"><title>SharedModule-&gt;ReversePipe</title><path fill="none" stroke="#000" stroke-dasharray="5 2" d="M494.2628,-187.1061C494.2628,-187.1061 494.2628,-205.991 494.2628,-205.991"/><polygon fill="#000" stroke="#000" points="490.763 -205.991 494.263 -215.991 497.763 -205.991 490.763 -205.991"/></g><g id="node13" class="node"><title>SavedAddressComponent</title><polygon fill="#fb8072" stroke="#000" points="401.415 -252 236.585 -252 236.585 -216 401.415 -216 401.415 -252"/><text x="319" y="-229.8" fill="#000" font-family="Times,serif" font-size="14" text-anchor="middle">SavedAddressComponent</text></g><g id="edge12" class="edge"><title>SharedModule-&gt;SavedAddressComponent</title><path fill="none" stroke="#000" stroke-dasharray="5 2" d="M479.4464,-181C434.0072,-181 373.7355,-181 373.7355,-181 373.7355,-181 373.7355,-205.7604 373.7355,-205.7604"/><polygon fill="#000" stroke="#000" points="370.236 -205.76 373.736 -215.76 377.236 -205.76 370.236 -205.76"/></g><g id="node14" class="node"><title>ZoomableDirective</title><polygon fill="#fb8072" stroke="#000" points="218.346 -252 89.654 -252 89.654 -216 218.346 -216 218.346 -252"/><text x="154" y="-229.8" fill="#000" font-family="Times,serif" font-size="14" text-anchor="middle">ZoomableDirective</text></g><g id="edge13" class="edge"><title>SharedModule-&gt;ZoomableDirective</title><path fill="none" stroke="#000" stroke-dasharray="5 2" d="M479.6705,-175C386.1301,-175 192.2327,-175 192.2327,-175 192.2327,-175 192.2327,-205.9775 192.2327,-205.9775"/><polygon fill="#000" stroke="#000" points="188.733 -205.977 192.233 -215.977 195.733 -205.977 188.733 -205.977"/></g></g></svg>