<svg xmlns="http://www.w3.org/2000/svg" xmlns:xlink="http://www.w3.org/1999/xlink" width="1264" height="211pt" viewBox="0 0 948 211"><g id="graph0" class="graph" transform="scale(1 1) rotate(0) translate(4 207)"><title>dependencies</title><polygon fill="#fff" stroke="transparent" points="-4 4 -4 -207 944 -207 944 4 -4 4"/><text x="449.009" y="-42.4" fill="#000" font-family="sans-serif" font-size="14" font-weight="bold" text-anchor="start">Legend</text><polygon fill="#ffffb3" stroke="transparent" points="236 -10 236 -30 256 -30 256 -10 236 -10"/><text x="259.629" y="-15.4" fill="#000" font-family="sans-serif" font-size="14" text-anchor="start">Declarations</text><polygon fill="#8dd3c7" stroke="transparent" points="349 -10 349 -30 369 -30 369 -10 349 -10"/><text x="372.725" y="-15.4" fill="#000" font-family="sans-serif" font-size="14" text-anchor="start">Module</text><polygon fill="#80b1d3" stroke="transparent" points="435 -10 435 -30 455 -30 455 -10 435 -10"/><text x="458.781" y="-15.4" fill="#000" font-family="sans-serif" font-size="14" text-anchor="start">Bootstrap</text><polygon fill="#fdb462" stroke="transparent" points="532 -10 532 -30 552 -30 552 -10 532 -10"/><text x="555.673" y="-15.4" fill="#000" font-family="sans-serif" font-size="14" text-anchor="start">Providers</text><polygon fill="#fb8072" stroke="transparent" points="628 -10 628 -30 648 -30 648 -10 628 -10"/><text x="651.726" y="-15.4" fill="#000" font-family="sans-serif" font-size="14" text-anchor="start">Exports</text><g id="clust1" class="cluster"><title>cluster_PaymentModule</title><polygon fill="none" stroke="#000" stroke-dasharray="1 5" points="8 -70 8 -195 932 -195 932 -70 8 -70"/></g><g id="clust2" class="cluster"><title>cluster_PaymentModule_declarations</title><polygon fill="none" stroke="#000" points="188 -78 188 -130 924 -130 924 -78 188 -78"/></g><g id="clust10" class="cluster"><title>cluster_PaymentModule_providers</title><polygon fill="none" stroke="#000" points="16 -78 16 -130 180 -130 180 -78 16 -78"/></g><g id="node1" class="node"><title>CashOnDeliveryComponent</title><polygon fill="#ffffb3" stroke="#000" points="915.913 -122 740.087 -122 740.087 -86 915.913 -86 915.913 -122"/><text x="828" y="-99.8" fill="#000" font-family="Times,serif" font-size="14" text-anchor="middle">CashOnDeliveryComponent</text></g><g id="node5" class="node"><title>PaymentModule</title><polygon fill="#8dd3c7" stroke="#000" points="523.044 -187 520.044 -191 499.044 -191 496.044 -187 414.956 -187 414.956 -151 523.044 -151 523.044 -187"/><text x="469" y="-164.8" fill="#000" font-family="Times,serif" font-size="14" text-anchor="middle">PaymentModule</text></g><g id="edge1" class="edge"><title>CashOnDeliveryComponent-&gt;PaymentModule</title><path fill="none" stroke="#000" d="M828,-122.2843C828,-143.3211 828,-175 828,-175 828,-175 533.1346,-175 533.1346,-175"/><polygon fill="#000" stroke="#000" points="533.135 -171.5 523.135 -175 533.135 -178.5 533.135 -171.5"/></g><g id="node2" class="node"><title>HostedPaymentComponent</title><polygon fill="#ffffb3" stroke="#000" points="721.982 -122 552.018 -122 552.018 -86 721.982 -86 721.982 -122"/><text x="637" y="-99.8" fill="#000" font-family="Times,serif" font-size="14" text-anchor="middle">HostedPaymentComponent</text></g><g id="edge2" class="edge"><title>HostedPaymentComponent-&gt;PaymentModule</title><path fill="none" stroke="#000" d="M637,-122.0225C637,-139.3734 637,-163 637,-163 637,-163 533.081,-163 533.081,-163"/><polygon fill="#000" stroke="#000" points="533.081 -159.5 523.081 -163 533.081 -166.5 533.081 -159.5"/></g><g id="node3" class="node"><title>PaymentComponent</title><polygon fill="#ffffb3" stroke="#000" points="534.326 -122 403.674 -122 403.674 -86 534.326 -86 534.326 -122"/><text x="469" y="-99.8" fill="#000" font-family="Times,serif" font-size="14" text-anchor="middle">PaymentComponent</text></g><g id="edge3" class="edge"><title>PaymentComponent-&gt;PaymentModule</title><path fill="none" stroke="#000" d="M469,-122.1061C469,-122.1061 469,-140.991 469,-140.991"/><polygon fill="#000" stroke="#000" points="465.5 -140.991 469 -150.991 472.5 -140.991 465.5 -140.991"/></g><g id="node4" class="node"><title>PaymentModesListComponent</title><polygon fill="#ffffb3" stroke="#000" points="386.208 -122 195.792 -122 195.792 -86 386.208 -86 386.208 -122"/><text x="291" y="-99.8" fill="#000" font-family="Times,serif" font-size="14" text-anchor="middle">PaymentModesListComponent</text></g><g id="edge4" class="edge"><title>PaymentModesListComponent-&gt;PaymentModule</title><path fill="none" stroke="#000" d="M291,-122.0225C291,-139.3734 291,-163 291,-163 291,-163 404.6269,-163 404.6269,-163"/><polygon fill="#000" stroke="#000" points="404.627 -166.5 414.627 -163 404.627 -159.5 404.627 -166.5"/></g><g id="node6" class="node"><title>PaymentService</title><ellipse cx="98" cy="-104" fill="#fdb462" stroke="#000" rx="73.573" ry="18"/><text x="98" y="-99.8" fill="#000" font-family="Times,serif" font-size="14" text-anchor="middle">PaymentService</text></g><g id="edge5" class="edge"><title>PaymentService-&gt;PaymentModule</title><path fill="none" stroke="#000" d="M98,-122.2843C98,-143.3211 98,-175 98,-175 98,-175 404.6561,-175 404.6561,-175"/><polygon fill="#000" stroke="#000" points="404.656 -178.5 414.656 -175 404.656 -171.5 404.656 -178.5"/></g></g></svg>