<svg xmlns="http://www.w3.org/2000/svg" xmlns:xlink="http://www.w3.org/1999/xlink" width="818pt" height="211pt" viewBox="0 0 818 211"><g id="graph0" class="graph" transform="scale(1 1) rotate(0) translate(4 207)"><title>dependencies</title><polygon fill="#fff" stroke="transparent" points="-4 4 -4 -207 814 -207 814 4 -4 4"/><text x="384.009" y="-42.4" fill="#000" font-family="sans-serif" font-size="14" font-weight="bold" text-anchor="start">Legend</text><polygon fill="#ffffb3" stroke="transparent" points="171 -10 171 -30 191 -30 191 -10 171 -10"/><text x="194.629" y="-15.4" fill="#000" font-family="sans-serif" font-size="14" text-anchor="start">Declarations</text><polygon fill="#8dd3c7" stroke="transparent" points="284 -10 284 -30 304 -30 304 -10 284 -10"/><text x="307.725" y="-15.4" fill="#000" font-family="sans-serif" font-size="14" text-anchor="start">Module</text><polygon fill="#80b1d3" stroke="transparent" points="370 -10 370 -30 390 -30 390 -10 370 -10"/><text x="393.781" y="-15.4" fill="#000" font-family="sans-serif" font-size="14" text-anchor="start">Bootstrap</text><polygon fill="#fdb462" stroke="transparent" points="467 -10 467 -30 487 -30 487 -10 467 -10"/><text x="490.673" y="-15.4" fill="#000" font-family="sans-serif" font-size="14" text-anchor="start">Providers</text><polygon fill="#fb8072" stroke="transparent" points="563 -10 563 -30 583 -30 583 -10 563 -10"/><text x="586.726" y="-15.4" fill="#000" font-family="sans-serif" font-size="14" text-anchor="start">Exports</text><g id="clust1" class="cluster"><title>cluster_AuthModule</title><polygon fill="none" stroke="#000" stroke-dasharray="1 5" points="8 -70 8 -195 802 -195 802 -70 8 -70"/></g><g id="clust2" class="cluster"><title>cluster_AuthModule_declarations</title><polygon fill="none" stroke="#000" points="138 -78 138 -130 794 -130 794 -78 138 -78"/></g><g id="clust7" class="cluster"><title>cluster_AuthModule_imports</title><polygon fill="none" stroke="#000" points="16 -78 16 -130 130 -130 130 -78 16 -78"/></g><g id="node1" class="node"><title>ForgetPasswordComponent</title><polygon fill="#ffffb3" stroke="#000" points="785.535 -122 614.465 -122 614.465 -86 785.535 -86 785.535 -122"/><text x="700" y="-99.8" fill="#000" font-family="Times,serif" font-size="14" text-anchor="middle">ForgetPasswordComponent</text></g><g id="node5" class="node"><title>AuthModule</title><polygon fill="#8dd3c7" stroke="#000" points="445.548 -187 442.548 -191 421.548 -191 418.548 -187 358.452 -187 358.452 -151 445.548 -151 445.548 -187"/><text x="402" y="-164.8" fill="#000" font-family="Times,serif" font-size="14" text-anchor="middle">AuthModule</text></g><g id="edge1" class="edge"><title>ForgetPasswordComponent-&gt;AuthModule</title><path fill="none" stroke="#000" d="M700,-122.2843C700,-143.3211 700,-175 700,-175 700,-175 455.6509,-175 455.6509,-175"/><polygon fill="#000" stroke="#000" points="455.651 -171.5 445.651 -175 455.651 -178.5 455.651 -171.5"/></g><g id="node2" class="node"><title>LoginComponent</title><polygon fill="#ffffb3" stroke="#000" points="596.276 -122 481.724 -122 481.724 -86 596.276 -86 596.276 -122"/><text x="539" y="-99.8" fill="#000" font-family="Times,serif" font-size="14" text-anchor="middle">LoginComponent</text></g><g id="edge2" class="edge"><title>LoginComponent-&gt;AuthModule</title><path fill="none" stroke="#000" d="M539,-122.0225C539,-139.3734 539,-163 539,-163 539,-163 455.7243,-163 455.7243,-163"/><polygon fill="#000" stroke="#000" points="455.724 -159.5 445.724 -163 455.724 -166.5 455.724 -159.5"/></g><g id="node3" class="node"><title>SignUpComponent</title><polygon fill="#ffffb3" stroke="#000" points="464.112 -122 339.888 -122 339.888 -86 464.112 -86 464.112 -122"/><text x="402" y="-99.8" fill="#000" font-family="Times,serif" font-size="14" text-anchor="middle">SignUpComponent</text></g><g id="edge3" class="edge"><title>SignUpComponent-&gt;AuthModule</title><path fill="none" stroke="#000" d="M402,-122.1061C402,-122.1061 402,-140.991 402,-140.991"/><polygon fill="#000" stroke="#000" points="398.5 -140.991 402 -150.991 405.5 -140.991 398.5 -140.991"/></g><g id="node4" class="node"><title>UpdatePasswordComponent</title><polygon fill="#ffffb3" stroke="#000" points="321.913 -122 146.087 -122 146.087 -86 321.913 -86 321.913 -122"/><text x="234" y="-99.8" fill="#000" font-family="Times,serif" font-size="14" text-anchor="middle">UpdatePasswordComponent</text></g><g id="edge4" class="edge"><title>UpdatePasswordComponent-&gt;AuthModule</title><path fill="none" stroke="#000" d="M234,-122.0225C234,-139.3734 234,-163 234,-163 234,-163 348.2985,-163 348.2985,-163"/><polygon fill="#000" stroke="#000" points="348.299 -166.5 358.298 -163 348.298 -159.5 348.299 -166.5"/></g><g id="node6" class="node"><title>SharedModule</title><polygon fill="#8dd3c7" stroke="#000" points="122.423 -122 119.423 -126 98.423 -126 95.423 -122 23.577 -122 23.577 -86 122.423 -86 122.423 -122"/><text x="73" y="-99.8" fill="#000" font-family="Times,serif" font-size="14" text-anchor="middle">SharedModule</text></g><g id="edge5" class="edge"><title>SharedModule-&gt;AuthModule</title><path fill="none" stroke="#000" d="M73,-122.2843C73,-143.3211 73,-175 73,-175 73,-175 348.3113,-175 348.3113,-175"/><polygon fill="#000" stroke="#000" points="348.311 -178.5 358.311 -175 348.311 -171.5 348.311 -178.5"/></g></g></svg>