<svg xmlns="http://www.w3.org/2000/svg" xmlns:xlink="http://www.w3.org/1999/xlink" width="2116pt" height="211pt" viewBox="0 0 2116 211"><g id="graph0" class="graph" transform="scale(1 1) rotate(0) translate(4 207)"><title>dependencies</title><polygon fill="#fff" stroke="transparent" points="-4 4 -4 -207 2112 -207 2112 4 -4 4"/><text x="1033.009" y="-42.4" fill="#000" font-family="sans-serif" font-size="14" font-weight="bold" text-anchor="start">Legend</text><polygon fill="#ffffb3" stroke="transparent" points="820 -10 820 -30 840 -30 840 -10 820 -10"/><text x="843.629" y="-15.4" fill="#000" font-family="sans-serif" font-size="14" text-anchor="start">Declarations</text><polygon fill="#8dd3c7" stroke="transparent" points="933 -10 933 -30 953 -30 953 -10 933 -10"/><text x="956.725" y="-15.4" fill="#000" font-family="sans-serif" font-size="14" text-anchor="start">Module</text><polygon fill="#80b1d3" stroke="transparent" points="1019 -10 1019 -30 1039 -30 1039 -10 1019 -10"/><text x="1042.781" y="-15.4" fill="#000" font-family="sans-serif" font-size="14" text-anchor="start">Bootstrap</text><polygon fill="#fdb462" stroke="transparent" points="1116 -10 1116 -30 1136 -30 1136 -10 1116 -10"/><text x="1139.673" y="-15.4" fill="#000" font-family="sans-serif" font-size="14" text-anchor="start">Providers</text><polygon fill="#fb8072" stroke="transparent" points="1212 -10 1212 -30 1232 -30 1232 -10 1212 -10"/><text x="1235.726" y="-15.4" fill="#000" font-family="sans-serif" font-size="14" text-anchor="start">Exports</text><g id="clust1" class="cluster"><title>cluster_CoreModule</title><polygon fill="none" stroke="#000" stroke-dasharray="1 5" points="8 -70 8 -195 2100 -195 2100 -70 8 -70"/></g><g id="clust6" class="cluster"><title>cluster_CoreModule_providers</title><polygon fill="none" stroke="#000" points="16 -78 16 -130 2092 -130 2092 -78 16 -78"/></g><g id="node1" class="node"><title>AuthService</title><ellipse cx="2025" cy="-104" fill="#fdb462" stroke="#000" rx="59.108" ry="18"/><text x="2025" y="-99.8" fill="#000" font-family="Times,serif" font-size="14" text-anchor="middle">AuthService</text></g><g id="node12" class="node"><title>CoreModule</title><polygon fill="#8dd3c7" stroke="#000" points="1133.262 -187 1130.262 -191 1109.262 -191 1106.262 -187 1046.738 -187 1046.738 -151 1133.262 -151 1133.262 -187"/><text x="1090" y="-164.8" fill="#000" font-family="Times,serif" font-size="14" text-anchor="middle">CoreModule</text></g><g id="edge1" class="edge"><title>AuthService-&gt;CoreModule</title><path fill="none" stroke="#000" d="M2025,-122.0908C2025,-145.1328 2025,-182 2025,-182 2025,-182 1143.5319,-182 1143.5319,-182"/><polygon fill="#000" stroke="#000" points="1143.532 -178.5 1133.532 -182 1143.532 -185.5 1143.532 -178.5"/></g><g id="node2" class="node"><title>CanActivateViaAuthGuard</title><ellipse cx="1831" cy="-104" fill="#fdb462" stroke="#000" rx="116.873" ry="18"/><text x="1831" y="-99.8" fill="#000" font-family="Times,serif" font-size="14" text-anchor="middle">CanActivateViaAuthGuard</text></g><g id="edge2" class="edge"><title>CanActivateViaAuthGuard-&gt;CoreModule</title><path fill="none" stroke="#000" d="M1831,-122.2843C1831,-143.3211 1831,-175 1831,-175 1831,-175 1143.314,-175 1143.314,-175"/><polygon fill="#000" stroke="#000" points="1143.314 -171.5 1133.314 -175 1143.314 -178.5 1143.314 -171.5"/></g><g id="node3" class="node"><title>CheckoutService</title><ellipse cx="1619" cy="-104" fill="#fdb462" stroke="#000" rx="77.006" ry="18"/><text x="1619" y="-99.8" fill="#000" font-family="Times,serif" font-size="14" text-anchor="middle">CheckoutService</text></g><g id="edge3" class="edge"><title>CheckoutService-&gt;CoreModule</title><path fill="none" stroke="#000" d="M1619,-122.1061C1619,-141.3391 1619,-169 1619,-169 1619,-169 1143.2903,-169 1143.2903,-169"/><polygon fill="#000" stroke="#000" points="1143.29 -165.5 1133.29 -169 1143.29 -172.5 1143.29 -165.5"/></g><g id="node4" class="node"><title>ProductService</title><ellipse cx="1454" cy="-104" fill="#fdb462" stroke="#000" rx="70.062" ry="18"/><text x="1454" y="-99.8" fill="#000" font-family="Times,serif" font-size="14" text-anchor="middle">ProductService</text></g><g id="edge4" class="edge"><title>ProductService-&gt;CoreModule</title><path fill="none" stroke="#000" d="M1454,-122.0225C1454,-139.3734 1454,-163 1454,-163 1454,-163 1143.5454,-163 1143.5454,-163"/><polygon fill="#000" stroke="#000" points="1143.545 -159.5 1133.545 -163 1143.545 -166.5 1143.545 -159.5"/></g><g id="node5" class="node"><title>ResponseInterceptor</title><ellipse cx="1276" cy="-104" fill="#fdb462" stroke="#000" rx="90.308" ry="18"/><text x="1276" y="-99.8" fill="#000" font-family="Times,serif" font-size="14" text-anchor="middle">ResponseInterceptor</text></g><g id="edge5" class="edge"><title>ResponseInterceptor-&gt;CoreModule</title><path fill="none" stroke="#000" d="M1276,-122.2396C1276,-137.5706 1276,-157 1276,-157 1276,-157 1143.6087,-157 1143.6087,-157"/><polygon fill="#000" stroke="#000" points="1143.609 -153.5 1133.609 -157 1143.609 -160.5 1143.609 -153.5"/></g><g id="node6" class="node"><title>TokenInterceptor</title><ellipse cx="1090" cy="-104" fill="#fdb462" stroke="#000" rx="78.131" ry="18"/><text x="1090" y="-99.8" fill="#000" font-family="Times,serif" font-size="14" text-anchor="middle">TokenInterceptor</text></g><g id="edge6" class="edge"><title>TokenInterceptor-&gt;CoreModule</title><path fill="none" stroke="#000" d="M1090,-122.1061C1090,-122.1061 1090,-140.991 1090,-140.991"/><polygon fill="#000" stroke="#000" points="1086.5 -140.991 1090 -150.991 1093.5 -140.991 1086.5 -140.991"/></g><g id="node7" class="node"><title>TransferStateInterceptor</title><ellipse cx="889" cy="-104" fill="#fdb462" stroke="#000" rx="105.308" ry="18"/><text x="889" y="-99.8" fill="#000" font-family="Times,serif" font-size="14" text-anchor="middle">TransferStateInterceptor</text></g><g id="edge7" class="edge"><title>TransferStateInterceptor-&gt;CoreModule</title><path fill="none" stroke="#000" d="M889,-122.2396C889,-137.5706 889,-157 889,-157 889,-157 1036.386,-157 1036.386,-157"/><polygon fill="#000" stroke="#000" points="1036.386 -160.5 1046.386 -157 1036.386 -153.5 1036.386 -160.5"/></g><g id="node8" class="node"><title>TransferStateService</title><ellipse cx="674" cy="-104" fill="#fdb462" stroke="#000" rx="92.004" ry="18"/><text x="674" y="-99.8" fill="#000" font-family="Times,serif" font-size="14" text-anchor="middle">TransferStateService</text></g><g id="edge8" class="edge"><title>TransferStateService-&gt;CoreModule</title><path fill="none" stroke="#000" d="M674,-122.0225C674,-139.3734 674,-163 674,-163 674,-163 1036.658,-163 1036.658,-163"/><polygon fill="#000" stroke="#000" points="1036.658 -166.5 1046.658 -163 1036.658 -159.5 1036.658 -166.5"/></g><g id="node9" class="node"><title>UserService</title><ellipse cx="506" cy="-104" fill="#fdb462" stroke="#000" rx="58.441" ry="18"/><text x="506" y="-99.8" fill="#000" font-family="Times,serif" font-size="14" text-anchor="middle">UserService</text></g><g id="edge9" class="edge"><title>UserService-&gt;CoreModule</title><path fill="none" stroke="#000" d="M506,-122.1061C506,-141.3391 506,-169 506,-169 506,-169 1036.5822,-169 1036.5822,-169"/><polygon fill="#000" stroke="#000" points="1036.582 -172.5 1046.582 -169 1036.582 -165.5 1036.582 -172.5"/></g><g id="node10" class="node"><title>VariantParserService</title><ellipse cx="337" cy="-104" fill="#fdb462" stroke="#000" rx="93.148" ry="18"/><text x="337" y="-99.8" fill="#000" font-family="Times,serif" font-size="14" text-anchor="middle">VariantParserService</text></g><g id="edge10" class="edge"><title>VariantParserService-&gt;CoreModule</title><path fill="none" stroke="#000" d="M337,-122.2843C337,-143.3211 337,-175 337,-175 337,-175 1036.5362,-175 1036.5362,-175"/><polygon fill="#000" stroke="#000" points="1036.536 -178.5 1046.536 -175 1036.536 -171.5 1036.536 -178.5"/></g><g id="node11" class="node"><title>VariantRetriverService</title><ellipse cx="125" cy="-104" fill="#fdb462" stroke="#000" rx="100.673" ry="18"/><text x="125" y="-99.8" fill="#000" font-family="Times,serif" font-size="14" text-anchor="middle">VariantRetriverService</text></g><g id="edge11" class="edge"><title>VariantRetriverService-&gt;CoreModule</title><path fill="none" stroke="#000" d="M125,-122.0908C125,-145.1328 125,-182 125,-182 125,-182 1036.6613,-182 1036.6613,-182"/><polygon fill="#000" stroke="#000" points="1036.661 -185.5 1046.661 -182 1036.661 -178.5 1036.661 -185.5"/></g></g></svg>