<svg xmlns="http://www.w3.org/2000/svg" xmlns:xlink="http://www.w3.org/1999/xlink" width="1372" height="211pt" viewBox="0 0 1029 211"><g id="graph0" class="graph" transform="scale(1 1) rotate(0) translate(4 207)"><title>dependencies</title><polygon fill="#fff" stroke="transparent" points="-4 4 -4 -207 1025 -207 1025 4 -4 4"/><text x="489.509" y="-42.4" fill="#000" font-family="sans-serif" font-size="14" font-weight="bold" text-anchor="start">Legend</text><polygon fill="#ffffb3" stroke="transparent" points="276.5 -10 276.5 -30 296.5 -30 296.5 -10 276.5 -10"/><text x="300.129" y="-15.4" fill="#000" font-family="sans-serif" font-size="14" text-anchor="start">Declarations</text><polygon fill="#8dd3c7" stroke="transparent" points="389.5 -10 389.5 -30 409.5 -30 409.5 -10 389.5 -10"/><text x="413.225" y="-15.4" fill="#000" font-family="sans-serif" font-size="14" text-anchor="start">Module</text><polygon fill="#80b1d3" stroke="transparent" points="475.5 -10 475.5 -30 495.5 -30 495.5 -10 475.5 -10"/><text x="499.281" y="-15.4" fill="#000" font-family="sans-serif" font-size="14" text-anchor="start">Bootstrap</text><polygon fill="#fdb462" stroke="transparent" points="572.5 -10 572.5 -30 592.5 -30 592.5 -10 572.5 -10"/><text x="596.173" y="-15.4" fill="#000" font-family="sans-serif" font-size="14" text-anchor="start">Providers</text><polygon fill="#fb8072" stroke="transparent" points="668.5 -10 668.5 -30 688.5 -30 688.5 -10 668.5 -10"/><text x="692.226" y="-15.4" fill="#000" font-family="sans-serif" font-size="14" text-anchor="start">Exports</text><g id="clust1" class="cluster"><title>cluster_AddressModule</title><polygon fill="none" stroke="#000" stroke-dasharray="1 5" points="8 -70 8 -195 1013 -195 1013 -70 8 -70"/></g><g id="clust2" class="cluster"><title>cluster_AddressModule_declarations</title><polygon fill="none" stroke="#000" points="306 -78 306 -130 1005 -130 1005 -78 306 -78"/></g><g id="clust7" class="cluster"><title>cluster_AddressModule_imports</title><polygon fill="none" stroke="#000" points="184 -78 184 -130 298 -130 298 -78 184 -78"/></g><g id="clust10" class="cluster"><title>cluster_AddressModule_providers</title><polygon fill="none" stroke="#000" points="16 -78 16 -130 176 -130 176 -78 16 -78"/></g><g id="node1" class="node"><title>AddAddressComponent</title><polygon fill="#ffffb3" stroke="#000" points="996.81 -122 845.19 -122 845.19 -86 996.81 -86 996.81 -122"/><text x="921" y="-99.8" fill="#000" font-family="Times,serif" font-size="14" text-anchor="middle">AddAddressComponent</text></g><g id="node5" class="node"><title>AddressModule</title><polygon fill="#8dd3c7" stroke="#000" points="549.922 -187 546.922 -191 525.922 -191 522.922 -187 444.078 -187 444.078 -151 549.922 -151 549.922 -187"/><text x="497" y="-164.8" fill="#000" font-family="Times,serif" font-size="14" text-anchor="middle">AddressModule</text></g><g id="edge1" class="edge"><title>AddAddressComponent-&gt;AddressModule</title><path fill="none" stroke="#000" d="M921,-122.2843C921,-143.3211 921,-175 921,-175 921,-175 559.8426,-175 559.8426,-175"/><polygon fill="#000" stroke="#000" points="559.843 -171.5 549.843 -175 559.843 -178.5 559.843 -171.5"/></g><g id="node2" class="node"><title>AddressComponent</title><polygon fill="#ffffb3" stroke="#000" points="827.704 -122 700.296 -122 700.296 -86 827.704 -86 827.704 -122"/><text x="764" y="-99.8" fill="#000" font-family="Times,serif" font-size="14" text-anchor="middle">AddressComponent</text></g><g id="edge2" class="edge"><title>AddressComponent-&gt;AddressModule</title><path fill="none" stroke="#000" d="M764,-122.0225C764,-139.3734 764,-163 764,-163 764,-163 559.7506,-163 559.7506,-163"/><polygon fill="#000" stroke="#000" points="559.751 -159.5 549.751 -163 559.751 -166.5 559.751 -159.5"/></g><g id="node3" class="node"><title>DeliveryAddressComponent</title><polygon fill="#ffffb3" stroke="#000" points="682.181 -122 505.819 -122 505.819 -86 682.181 -86 682.181 -122"/><text x="594" y="-99.8" fill="#000" font-family="Times,serif" font-size="14" text-anchor="middle">DeliveryAddressComponent</text></g><g id="edge3" class="edge"><title>DeliveryAddressComponent-&gt;AddressModule</title><path fill="none" stroke="#000" d="M527.81,-122.1061C527.81,-122.1061 527.81,-140.991 527.81,-140.991"/><polygon fill="#000" stroke="#000" points="524.31 -140.991 527.81 -150.991 531.31 -140.991 524.31 -140.991"/></g><g id="node4" class="node"><title>DeliveryOptionsComponent</title><polygon fill="#ffffb3" stroke="#000" points="488.143 -122 313.857 -122 313.857 -86 488.143 -86 488.143 -122"/><text x="401" y="-99.8" fill="#000" font-family="Times,serif" font-size="14" text-anchor="middle">DeliveryOptionsComponent</text></g><g id="edge4" class="edge"><title>DeliveryOptionsComponent-&gt;AddressModule</title><path fill="none" stroke="#000" d="M466.3054,-122.1061C466.3054,-122.1061 466.3054,-140.991 466.3054,-140.991"/><polygon fill="#000" stroke="#000" points="462.805 -140.991 466.305 -150.991 469.805 -140.991 462.805 -140.991"/></g><g id="node6" class="node"><title>SharedModule</title><polygon fill="#8dd3c7" stroke="#000" points="290.423 -122 287.423 -126 266.423 -126 263.423 -122 191.577 -122 191.577 -86 290.423 -86 290.423 -122"/><text x="241" y="-99.8" fill="#000" font-family="Times,serif" font-size="14" text-anchor="middle">SharedModule</text></g><g id="edge5" class="edge"><title>SharedModule-&gt;AddressModule</title><path fill="none" stroke="#000" d="M241,-122.0225C241,-139.3734 241,-163 241,-163 241,-163 434.267,-163 434.267,-163"/><polygon fill="#000" stroke="#000" points="434.267 -166.5 444.267 -163 434.267 -159.5 434.267 -166.5"/></g><g id="node7" class="node"><title>AddressService</title><ellipse cx="96" cy="-104" fill="#fdb462" stroke="#000" rx="71.766" ry="18"/><text x="96" y="-99.8" fill="#000" font-family="Times,serif" font-size="14" text-anchor="middle">AddressService</text></g><g id="edge6" class="edge"><title>AddressService-&gt;AddressModule</title><path fill="none" stroke="#000" d="M96,-122.2843C96,-143.3211 96,-175 96,-175 96,-175 434.1639,-175 434.1639,-175"/><polygon fill="#000" stroke="#000" points="434.164 -178.5 444.164 -175 434.164 -171.5 434.164 -178.5"/></g></g></svg>