<svg xmlns="http://www.w3.org/2000/svg" xmlns:xlink="http://www.w3.org/1999/xlink" width="3208pt" height="284pt" viewBox="0 0 3208 284"><g id="graph0" class="graph" transform="scale(1 1) rotate(0) translate(4 280)"><title>dependencies</title><polygon fill="#fff" stroke="transparent" points="-4 4 -4 -280 3204 -280 3204 4 -4 4"/><text x="1579.009" y="-42.4" fill="#000" font-family="sans-serif" font-size="14" font-weight="bold" text-anchor="start">Legend</text><polygon fill="#ffffb3" stroke="transparent" points="1366 -10 1366 -30 1386 -30 1386 -10 1366 -10"/><text x="1389.629" y="-15.4" fill="#000" font-family="sans-serif" font-size="14" text-anchor="start">Declarations</text><polygon fill="#8dd3c7" stroke="transparent" points="1479 -10 1479 -30 1499 -30 1499 -10 1479 -10"/><text x="1502.725" y="-15.4" fill="#000" font-family="sans-serif" font-size="14" text-anchor="start">Module</text><polygon fill="#80b1d3" stroke="transparent" points="1565 -10 1565 -30 1585 -30 1585 -10 1565 -10"/><text x="1588.781" y="-15.4" fill="#000" font-family="sans-serif" font-size="14" text-anchor="start">Bootstrap</text><polygon fill="#fdb462" stroke="transparent" points="1662 -10 1662 -30 1682 -30 1682 -10 1662 -10"/><text x="1685.673" y="-15.4" fill="#000" font-family="sans-serif" font-size="14" text-anchor="start">Providers</text><polygon fill="#fb8072" stroke="transparent" points="1758 -10 1758 -30 1778 -30 1778 -10 1758 -10"/><text x="1781.726" y="-15.4" fill="#000" font-family="sans-serif" font-size="14" text-anchor="start">Exports</text><g id="clust1" class="cluster"><title>cluster_LayoutModule</title><polygon fill="none" stroke="#000" stroke-dasharray="1 5" points="8 -70 8 -268 3192 -268 3192 -70 8 -70"/></g><g id="clust2" class="cluster"><title>cluster_LayoutModule_declarations</title><polygon fill="none" stroke="#000" points="138 -78 138 -130 3184 -130 3184 -78 138 -78"/></g><g id="clust19" class="cluster"><title>cluster_LayoutModule_imports</title><polygon fill="none" stroke="#000" points="16 -78 16 -130 130 -130 130 -78 16 -78"/></g><g id="clust20" class="cluster"><title>cluster_LayoutModule_exports</title><polygon fill="none" stroke="#000" points="1407 -208 1407 -260 1688 -260 1688 -208 1407 -208"/></g><g id="node1" class="node"><title>BrandListComponent</title><polygon fill="#ffffb3" stroke="#000" points="3175.823 -122 3038.177 -122 3038.177 -86 3175.823 -86 3175.823 -122"/><text x="3107" y="-99.8" fill="#000" font-family="Times,serif" font-size="14" text-anchor="middle">BrandListComponent</text></g><g id="node17" class="node"><title>LayoutModule</title><polygon fill="#8dd3c7" stroke="#000" points="1597.708 -187 1594.708 -191 1573.708 -191 1570.708 -187 1498.292 -187 1498.292 -151 1597.708 -151 1597.708 -187"/><text x="1548" y="-164.8" fill="#000" font-family="Times,serif" font-size="14" text-anchor="middle">LayoutModule</text></g><g id="edge1" class="edge"><title>BrandListComponent-&gt;LayoutModule</title><path fill="none" stroke="#000" d="M3107,-122.3228C3107,-145.6602 3107,-183 3107,-183 3107,-183 1607.668,-183 1607.668,-183"/><polygon fill="#000" stroke="#000" points="1607.668 -179.5 1597.668 -183 1607.668 -186.5 1607.668 -179.5"/></g><g id="node2" class="node"><title>BrandLogoComponent</title><polygon fill="#ffffb3" stroke="#000" points="3020.597 -122 2875.403 -122 2875.403 -86 3020.597 -86 3020.597 -122"/><text x="2948" y="-99.8" fill="#000" font-family="Times,serif" font-size="14" text-anchor="middle">BrandLogoComponent</text></g><g id="edge2" class="edge"><title>BrandLogoComponent-&gt;LayoutModule</title><path fill="none" stroke="#000" d="M2948,-122.1554C2948,-144.3519 2948,-179 2948,-179 2948,-179 1607.8267,-179 1607.8267,-179"/><polygon fill="#000" stroke="#000" points="1607.827 -175.5 1597.827 -179 1607.827 -182.5 1607.827 -175.5"/></g><g id="node3" class="node"><title>BrandMenuDropdownComponent</title><polygon fill="#ffffb3" stroke="#000" points="2857.077 -122 2648.923 -122 2648.923 -86 2857.077 -86 2857.077 -122"/><text x="2753" y="-99.8" fill="#000" font-family="Times,serif" font-size="14" text-anchor="middle">BrandMenuDropdownComponent</text></g><g id="edge3" class="edge"><title>BrandMenuDropdownComponent-&gt;LayoutModule</title><path fill="none" stroke="#000" d="M2753,-122.2843C2753,-143.3211 2753,-175 2753,-175 2753,-175 1607.8629,-175 1607.8629,-175"/><polygon fill="#000" stroke="#000" points="1607.863 -171.5 1597.863 -175 1607.863 -178.5 1607.863 -171.5"/></g><g id="node4" class="node"><title>CategoriesDetailsComponent</title><polygon fill="#ffffb3" stroke="#000" points="2631.352 -122 2450.648 -122 2450.648 -86 2631.352 -86 2631.352 -122"/><text x="2541" y="-99.8" fill="#000" font-family="Times,serif" font-size="14" text-anchor="middle">CategoriesDetailsComponent</text></g><g id="edge4" class="edge"><title>CategoriesDetailsComponent-&gt;LayoutModule</title><path fill="none" stroke="#000" d="M2541,-122.308C2541,-142.1455 2541,-171 2541,-171 2541,-171 1607.9235,-171 1607.9235,-171"/><polygon fill="#000" stroke="#000" points="1607.924 -167.5 1597.924 -171 1607.924 -174.5 1607.924 -167.5"/></g><g id="node5" class="node"><title>CategoriesListComponent</title><polygon fill="#ffffb3" stroke="#000" points="2432.478 -122 2269.522 -122 2269.522 -86 2432.478 -86 2432.478 -122"/><text x="2351" y="-99.8" fill="#000" font-family="Times,serif" font-size="14" text-anchor="middle">CategoriesListComponent</text></g><g id="edge5" class="edge"><title>CategoriesListComponent-&gt;LayoutModule</title><path fill="none" stroke="#000" d="M2351,-122.2222C2351,-140.8285 2351,-167 2351,-167 2351,-167 1607.6253,-167 1607.6253,-167"/><polygon fill="#000" stroke="#000" points="1607.625 -163.5 1597.625 -167 1607.625 -170.5 1607.625 -163.5"/></g><g id="node6" class="node"><title>CategoriesMenuDropdownComponent</title><polygon fill="#ffffb3" stroke="#000" points="2251.732 -122 2018.268 -122 2018.268 -86 2251.732 -86 2251.732 -122"/><text x="2135" y="-99.8" fill="#000" font-family="Times,serif" font-size="14" text-anchor="middle">CategoriesMenuDropdownComponent</text></g><g id="edge6" class="edge"><title>CategoriesMenuDropdownComponent-&gt;LayoutModule</title><path fill="none" stroke="#000" d="M2135,-122.0225C2135,-139.3734 2135,-163 2135,-163 2135,-163 1607.7941,-163 1607.7941,-163"/><polygon fill="#000" stroke="#000" points="1607.794 -159.5 1597.794 -163 1607.794 -166.5 1607.794 -159.5"/></g><g id="node7" class="node"><title>CategoryMobileMenuComponent</title><polygon fill="#ffffb3" stroke="#000" points="1999.749 -122 1794.251 -122 1794.251 -86 1999.749 -86 1999.749 -122"/><text x="1897" y="-99.8" fill="#000" font-family="Times,serif" font-size="14" text-anchor="middle">CategoryMobileMenuComponent</text></g><g id="edge7" class="edge"><title>CategoryMobileMenuComponent-&gt;LayoutModule</title><path fill="none" stroke="#000" d="M1897,-122.0091C1897,-138.0494 1897,-159 1897,-159 1897,-159 1607.6326,-159 1607.6326,-159"/><polygon fill="#000" stroke="#000" points="1607.633 -155.5 1597.633 -159 1607.632 -162.5 1607.633 -155.5"/></g><g id="node8" class="node"><title>FooterComponent</title><polygon fill="#ffffb3" stroke="#000" points="1775.881 -122 1658.119 -122 1658.119 -86 1775.881 -86 1775.881 -122"/><text x="1717" y="-99.8" fill="#000" font-family="Times,serif" font-size="14" text-anchor="middle">FooterComponent</text></g><g id="edge8" class="edge"><title>FooterComponent-&gt;LayoutModule</title><path fill="none" stroke="#000" d="M1668.875,-122.1243C1668.875,-136.7832 1668.875,-155 1668.875,-155 1668.875,-155 1607.8624,-155 1607.8624,-155"/><polygon fill="#000" stroke="#000" points="1607.862 -151.5 1597.862 -155 1607.862 -158.5 1607.862 -151.5"/></g><g id="node9" class="node"><title>FooterContactInfoComponent</title><polygon fill="#ffffb3" stroke="#000" points="1640.249 -122 1455.751 -122 1455.751 -86 1640.249 -86 1640.249 -122"/><text x="1548" y="-99.8" fill="#000" font-family="Times,serif" font-size="14" text-anchor="middle">FooterContactInfoComponent</text></g><g id="edge9" class="edge"><title>FooterContactInfoComponent-&gt;LayoutModule</title><path fill="none" stroke="#000" d="M1548,-122.1061C1548,-122.1061 1548,-140.991 1548,-140.991"/><polygon fill="#000" stroke="#000" points="1544.5 -140.991 1548 -150.991 1551.5 -140.991 1544.5 -140.991"/></g><g id="node10" class="node"><title>FooterQuickLinksComponent</title><polygon fill="#ffffb3" stroke="#000" points="1437.98 -122 1254.02 -122 1254.02 -86 1437.98 -86 1437.98 -122"/><text x="1346" y="-99.8" fill="#000" font-family="Times,serif" font-size="14" text-anchor="middle">FooterQuickLinksComponent</text></g><g id="edge10" class="edge"><title>FooterQuickLinksComponent-&gt;LayoutModule</title><path fill="none" stroke="#000" d="M1426.6843,-122.1243C1426.6843,-136.7832 1426.6843,-155 1426.6843,-155 1426.6843,-155 1488.3062,-155 1488.3062,-155"/><polygon fill="#000" stroke="#000" points="1488.306 -158.5 1498.306 -155 1488.306 -151.5 1488.306 -158.5"/></g><g id="node11" class="node"><title>FooterSocialLinksComponent</title><polygon fill="#ffffb3" stroke="#000" points="1236.262 -122 1051.738 -122 1051.738 -86 1236.262 -86 1236.262 -122"/><text x="1144" y="-99.8" fill="#000" font-family="Times,serif" font-size="14" text-anchor="middle">FooterSocialLinksComponent</text></g><g id="edge11" class="edge"><title>FooterSocialLinksComponent-&gt;LayoutModule</title><path fill="none" stroke="#000" d="M1144,-122.0091C1144,-138.0494 1144,-159 1144,-159 1144,-159 1488.0565,-159 1488.0565,-159"/><polygon fill="#000" stroke="#000" points="1488.056 -162.5 1498.056 -159 1488.056 -155.5 1488.056 -162.5"/></g><g id="node12" class="node"><title>HeaderCartComponent</title><polygon fill="#ffffb3" stroke="#000" points="1033.846 -122 888.154 -122 888.154 -86 1033.846 -86 1033.846 -122"/><text x="961" y="-99.8" fill="#000" font-family="Times,serif" font-size="14" text-anchor="middle">HeaderCartComponent</text></g><g id="edge12" class="edge"><title>HeaderCartComponent-&gt;LayoutModule</title><path fill="none" stroke="#000" d="M961,-122.0225C961,-139.3734 961,-163 961,-163 961,-163 1488.2059,-163 1488.2059,-163"/><polygon fill="#000" stroke="#000" points="1488.206 -166.5 1498.206 -163 1488.206 -159.5 1488.206 -166.5"/></g><g id="node13" class="node"><title>HeaderComponent</title><polygon fill="#ffffb3" stroke="#000" points="869.744 -122 748.256 -122 748.256 -86 869.744 -86 869.744 -122"/><text x="809" y="-99.8" fill="#000" font-family="Times,serif" font-size="14" text-anchor="middle">HeaderComponent</text></g><g id="edge13" class="edge"><title>HeaderComponent-&gt;LayoutModule</title><path fill="none" stroke="#000" d="M809,-122.2222C809,-140.8285 809,-167 809,-167 809,-167 1488.3646,-167 1488.3646,-167"/><polygon fill="#000" stroke="#000" points="1488.365 -170.5 1498.365 -167 1488.365 -163.5 1488.365 -170.5"/></g><g id="node14" class="node"><title>HeaderHelpDropdownComponent</title><polygon fill="#ffffb3" stroke="#000" points="730.329 -122 521.671 -122 521.671 -86 730.329 -86 730.329 -122"/><text x="626" y="-99.8" fill="#000" font-family="Times,serif" font-size="14" text-anchor="middle">HeaderHelpDropdownComponent</text></g><g id="edge14" class="edge"><title>HeaderHelpDropdownComponent-&gt;LayoutModule</title><path fill="none" stroke="#000" d="M626,-122.308C626,-142.1455 626,-171 626,-171 626,-171 1488.1024,-171 1488.1024,-171"/><polygon fill="#000" stroke="#000" points="1488.102 -174.5 1498.102 -171 1488.102 -167.5 1488.102 -174.5"/></g><g id="node15" class="node"><title>HeaderSearchComponent</title><polygon fill="#ffffb3" stroke="#000" points="503.83 -122 344.17 -122 344.17 -86 503.83 -86 503.83 -122"/><text x="424" y="-99.8" fill="#000" font-family="Times,serif" font-size="14" text-anchor="middle">HeaderSearchComponent</text></g><g id="edge15" class="edge"><title>HeaderSearchComponent-&gt;LayoutModule</title><path fill="none" stroke="#000" d="M424,-122.2843C424,-143.3211 424,-175 424,-175 424,-175 1488.2528,-175 1488.2528,-175"/><polygon fill="#000" stroke="#000" points="1488.253 -178.5 1498.253 -175 1488.253 -171.5 1488.253 -178.5"/></g><g id="node16" class="node"><title>ProfileDropdownComponent</title><polygon fill="#ffffb3" stroke="#000" points="325.806 -122 146.194 -122 146.194 -86 325.806 -86 325.806 -122"/><text x="236" y="-99.8" fill="#000" font-family="Times,serif" font-size="14" text-anchor="middle">ProfileDropdownComponent</text></g><g id="edge16" class="edge"><title>ProfileDropdownComponent-&gt;LayoutModule</title><path fill="none" stroke="#000" d="M236,-122.1554C236,-144.3519 236,-179 236,-179 236,-179 1488.1701,-179 1488.1701,-179"/><polygon fill="#000" stroke="#000" points="1488.17 -182.5 1498.17 -179 1488.17 -175.5 1488.17 -182.5"/></g><g id="node19" class="node"><title>FooterComponent</title><polygon fill="#fb8072" stroke="#000" points="1679.881 -252 1558.119 -252 1558.119 -216 1679.881 -216 1679.881 -252"/><text x="1619" y="-229.8" fill="#000" font-family="Times,serif" font-size="14" text-anchor="middle">FooterComponent</text></g><g id="edge18" class="edge"><title>LayoutModule-&gt;FooterComponent</title><path fill="none" stroke="#000" stroke-dasharray="5 2" d="M1577.9567,-187.1061C1577.9567,-187.1061 1577.9567,-205.991 1577.9567,-205.991"/><polygon fill="#000" stroke="#000" points="1574.457 -205.991 1577.957 -215.991 1581.457 -205.991 1574.457 -205.991"/></g><g id="node20" class="node"><title>HeaderComponent</title><polygon fill="#fb8072" stroke="#000" points="1540.744 -252 1415.256 -252 1415.256 -216 1540.744 -216 1540.744 -252"/><text x="1478" y="-229.8" fill="#000" font-family="Times,serif" font-size="14" text-anchor="middle">HeaderComponent</text></g><g id="edge19" class="edge"><title>LayoutModule-&gt;HeaderComponent</title><path fill="none" stroke="#000" stroke-dasharray="5 2" d="M1519.509,-187.1061C1519.509,-187.1061 1519.509,-205.991 1519.509,-205.991"/><polygon fill="#000" stroke="#000" points="1516.009 -205.991 1519.509 -215.991 1523.009 -205.991 1516.009 -205.991"/></g><g id="node18" class="node"><title>SharedModule</title><polygon fill="#8dd3c7" stroke="#000" points="122.423 -122 119.423 -126 98.423 -126 95.423 -122 23.577 -122 23.577 -86 122.423 -86 122.423 -122"/><text x="73" y="-99.8" fill="#000" font-family="Times,serif" font-size="14" text-anchor="middle">SharedModule</text></g><g id="edge17" class="edge"><title>SharedModule-&gt;LayoutModule</title><path fill="none" stroke="#000" d="M73,-122.3228C73,-145.6602 73,-183 73,-183 73,-183 1488.0789,-183 1488.0789,-183"/><polygon fill="#000" stroke="#000" points="1488.079 -186.5 1498.079 -183 1488.079 -179.5 1488.079 -186.5"/></g></g></svg>