<svg xmlns="http://www.w3.org/2000/svg" xmlns:xlink="http://www.w3.org/1999/xlink" width="1652" height="284pt" viewBox="0 0 1239 284"><g id="graph0" class="graph" transform="scale(1 1) rotate(0) translate(4 280)"><title>dependencies</title><polygon fill="#fff" stroke="transparent" points="-4 4 -4 -280 1235 -280 1235 4 -4 4"/><text x="594.509" y="-42.4" fill="#000" font-family="sans-serif" font-size="14" font-weight="bold" text-anchor="start">Legend</text><polygon fill="#ffffb3" stroke="transparent" points="381.5 -10 381.5 -30 401.5 -30 401.5 -10 381.5 -10"/><text x="405.129" y="-15.4" fill="#000" font-family="sans-serif" font-size="14" text-anchor="start">Declarations</text><polygon fill="#8dd3c7" stroke="transparent" points="494.5 -10 494.5 -30 514.5 -30 514.5 -10 494.5 -10"/><text x="518.225" y="-15.4" fill="#000" font-family="sans-serif" font-size="14" text-anchor="start">Module</text><polygon fill="#80b1d3" stroke="transparent" points="580.5 -10 580.5 -30 600.5 -30 600.5 -10 580.5 -10"/><text x="604.281" y="-15.4" fill="#000" font-family="sans-serif" font-size="14" text-anchor="start">Bootstrap</text><polygon fill="#fdb462" stroke="transparent" points="677.5 -10 677.5 -30 697.5 -30 697.5 -10 677.5 -10"/><text x="701.173" y="-15.4" fill="#000" font-family="sans-serif" font-size="14" text-anchor="start">Providers</text><polygon fill="#fb8072" stroke="transparent" points="773.5 -10 773.5 -30 793.5 -30 793.5 -10 773.5 -10"/><text x="797.226" y="-15.4" fill="#000" font-family="sans-serif" font-size="14" text-anchor="start">Exports</text><g id="clust1" class="cluster"><title>cluster_AppModule</title><polygon fill="none" stroke="#000" stroke-dasharray="1 5" points="8 -70 8 -268 1223 -268 1223 -70 8 -70"/></g><g id="clust2" class="cluster"><title>cluster_AppModule_declarations</title><polygon fill="none" stroke="#000" points="711 -78 711 -130 1215 -130 1215 -78 711 -78"/></g><g id="clust6" class="cluster"><title>cluster_AppModule_imports</title><polygon fill="none" stroke="#000" points="184 -78 184 -130 703 -130 703 -78 184 -78"/></g><g id="clust8" class="cluster"><title>cluster_AppModule_bootstrap</title><polygon fill="none" stroke="#000" points="518 -208 518 -260 642 -260 642 -208 518 -208"/></g><g id="clust9" class="cluster"><title>cluster_AppModule_providers</title><polygon fill="none" stroke="#000" points="16 -78 16 -130 176 -130 176 -78 16 -78"/></g><g id="node1" class="node"><title>AppComponent</title><polygon fill="#ffffb3" stroke="#000" points="1206.94 -122 1101.06 -122 1101.06 -86 1206.94 -86 1206.94 -122"/><text x="1154" y="-99.8" fill="#000" font-family="Times,serif" font-size="14" text-anchor="middle">AppComponent</text></g><g id="node4" class="node"><title>AppModule</title><polygon fill="#8dd3c7" stroke="#000" points="621.657 -187 618.657 -191 597.657 -191 594.657 -187 538.343 -187 538.343 -151 621.657 -151 621.657 -187"/><text x="580" y="-164.8" fill="#000" font-family="Times,serif" font-size="14" text-anchor="middle">AppModule</text></g><g id="edge1" class="edge"><title>AppComponent-&gt;AppModule</title><path fill="none" stroke="#000" d="M1154,-122.0109C1154,-144.4852 1154,-180 1154,-180 1154,-180 631.743,-180 631.743,-180"/><polygon fill="#000" stroke="#000" points="631.743 -176.5 621.743 -180 631.743 -183.5 631.743 -176.5"/></g><g id="node2" class="node"><title>CheckoutFooterComponent</title><polygon fill="#ffffb3" stroke="#000" points="1083.538 -122 912.462 -122 912.462 -86 1083.538 -86 1083.538 -122"/><text x="998" y="-99.8" fill="#000" font-family="Times,serif" font-size="14" text-anchor="middle">CheckoutFooterComponent</text></g><g id="edge2" class="edge"><title>CheckoutFooterComponent-&gt;AppModule</title><path fill="none" stroke="#000" d="M998,-122.1289C998,-142.5724 998,-173 998,-173 998,-173 631.9933,-173 631.9933,-173"/><polygon fill="#000" stroke="#000" points="631.993 -169.5 621.993 -173 631.993 -176.5 631.993 -169.5"/></g><g id="node3" class="node"><title>CheckoutHeaderComponent</title><polygon fill="#ffffb3" stroke="#000" points="894.9 -122 719.1 -122 719.1 -86 894.9 -86 894.9 -122"/><text x="807" y="-99.8" fill="#000" font-family="Times,serif" font-size="14" text-anchor="middle">CheckoutHeaderComponent</text></g><g id="edge3" class="edge"><title>CheckoutHeaderComponent-&gt;AppModule</title><path fill="none" stroke="#000" d="M807,-122.2667C807,-140.5552 807,-166 807,-166 807,-166 631.8998,-166 631.8998,-166"/><polygon fill="#000" stroke="#000" points="631.9 -162.5 621.9 -166 631.9 -169.5 631.9 -162.5"/></g><g id="node10" class="node"><title>AppComponent</title><polygon fill="#80b1d3" stroke="#000" points="634.439 -252 525.561 -252 525.561 -216 634.439 -216 634.439 -252"/><text x="580" y="-229.8" fill="#000" font-family="Times,serif" font-size="14" text-anchor="middle">AppComponent</text></g><g id="edge9" class="edge"><title>AppModule-&gt;AppComponent</title><path fill="none" stroke="#000" stroke-dasharray="1 5" d="M580,-187.1061C580,-187.1061 580,-205.991 580,-205.991"/><polygon fill="#000" stroke="#000" points="576.5 -205.991 580 -215.991 583.5 -205.991 576.5 -205.991"/></g><!--!--><g id="node5" class="node"><title>!</title><polygon fill="#8dd3c7" stroke="#000" points="695 -122 692 -126 671 -126 668 -122 641 -122 641 -86 695 -86 695 -122"/><text x="668" y="-99.8" fill="#000" font-family="Times,serif" font-size="14" text-anchor="middle">!</text></g><!--!&#45;&gt;AppModule--><g id="edge4" class="edge"><title>!-&gt;AppModule</title><path fill="none" stroke="#000" d="M668,-122.0091C668,-138.0494 668,-159 668,-159 668,-159 631.6806,-159 631.6806,-159"/><polygon fill="#000" stroke="#000" points="631.681 -155.5 621.681 -159 631.681 -162.5 631.681 -155.5"/></g><g id="node6" class="node"><title>CoreModule</title><polygon fill="#8dd3c7" stroke="#000" points="623.262 -122 620.262 -126 599.262 -126 596.262 -122 536.738 -122 536.738 -86 623.262 -86 623.262 -122"/><text x="580" y="-99.8" fill="#000" font-family="Times,serif" font-size="14" text-anchor="middle">CoreModule</text></g><g id="edge5" class="edge"><title>CoreModule-&gt;AppModule</title><path fill="none" stroke="#000" d="M580,-122.1061C580,-122.1061 580,-140.991 580,-140.991"/><polygon fill="#000" stroke="#000" points="576.5 -140.991 580 -150.991 583.5 -140.991 576.5 -140.991"/></g><g id="node7" class="node"><title>HomeModule</title><polygon fill="#8dd3c7" stroke="#000" points="518.762 -122 515.762 -126 494.762 -126 491.762 -122 425.238 -122 425.238 -86 518.762 -86 518.762 -122"/><text x="472" y="-99.8" fill="#000" font-family="Times,serif" font-size="14" text-anchor="middle">HomeModule</text></g><g id="edge6" class="edge"><title>HomeModule-&gt;AppModule</title><path fill="none" stroke="#000" d="M472,-122.0091C472,-138.0494 472,-159 472,-159 472,-159 528.2444,-159 528.2444,-159"/><polygon fill="#000" stroke="#000" points="528.244 -162.5 538.244 -159 528.244 -155.5 528.244 -162.5"/></g><g id="node8" class="node"><title>LayoutModule</title><polygon fill="#8dd3c7" stroke="#000" points="407.708 -122 404.708 -126 383.708 -126 380.708 -122 308.292 -122 308.292 -86 407.708 -86 407.708 -122"/><text x="358" y="-99.8" fill="#000" font-family="Times,serif" font-size="14" text-anchor="middle">LayoutModule</text></g><g id="edge7" class="edge"><title>LayoutModule-&gt;AppModule</title><path fill="none" stroke="#000" d="M358,-122.2667C358,-140.5552 358,-166 358,-166 358,-166 528.2435,-166 528.2435,-166"/><polygon fill="#000" stroke="#000" points="528.244 -169.5 538.244 -166 528.244 -162.5 528.244 -169.5"/></g><g id="node9" class="node"><title>SharedModule</title><polygon fill="#8dd3c7" stroke="#000" points="290.423 -122 287.423 -126 266.423 -126 263.423 -122 191.577 -122 191.577 -86 290.423 -86 290.423 -122"/><text x="241" y="-99.8" fill="#000" font-family="Times,serif" font-size="14" text-anchor="middle">SharedModule</text></g><g id="edge8" class="edge"><title>SharedModule-&gt;AppModule</title><path fill="none" stroke="#000" d="M241,-122.1289C241,-142.5724 241,-173 241,-173 241,-173 528.0919,-173 528.0919,-173"/><polygon fill="#000" stroke="#000" points="528.092 -176.5 538.092 -173 528.092 -169.5 528.092 -176.5"/></g><g id="node11" class="node"><title>AddressService</title><ellipse cx="96" cy="-104" fill="#fdb462" stroke="#000" rx="71.766" ry="18"/><text x="96" y="-99.8" fill="#000" font-family="Times,serif" font-size="14" text-anchor="middle">AddressService</text></g><g id="edge10" class="edge"><title>AddressService-&gt;AppModule</title><path fill="none" stroke="#000" d="M96,-122.0109C96,-144.4852 96,-180 96,-180 96,-180 528.3155,-180 528.3155,-180"/><polygon fill="#000" stroke="#000" points="528.316 -183.5 538.316 -180 528.316 -176.5 528.316 -183.5"/></g></g></svg>