<svg xmlns="http://www.w3.org/2000/svg" xmlns:xlink="http://www.w3.org/1999/xlink" width="2192pt" height="211pt" viewBox="0 0 2192 211"><g id="graph0" class="graph" transform="scale(1 1) rotate(0) translate(4 207)"><title>dependencies</title><polygon fill="#fff" stroke="transparent" points="-4 4 -4 -207 2188 -207 2188 4 -4 4"/><text x="1071.009" y="-42.4" fill="#000" font-family="sans-serif" font-size="14" font-weight="bold" text-anchor="start">Legend</text><polygon fill="#ffffb3" stroke="transparent" points="858 -10 858 -30 878 -30 878 -10 858 -10"/><text x="881.629" y="-15.4" fill="#000" font-family="sans-serif" font-size="14" text-anchor="start">Declarations</text><polygon fill="#8dd3c7" stroke="transparent" points="971 -10 971 -30 991 -30 991 -10 971 -10"/><text x="994.725" y="-15.4" fill="#000" font-family="sans-serif" font-size="14" text-anchor="start">Module</text><polygon fill="#80b1d3" stroke="transparent" points="1057 -10 1057 -30 1077 -30 1077 -10 1057 -10"/><text x="1080.781" y="-15.4" fill="#000" font-family="sans-serif" font-size="14" text-anchor="start">Bootstrap</text><polygon fill="#fdb462" stroke="transparent" points="1154 -10 1154 -30 1174 -30 1174 -10 1154 -10"/><text x="1177.673" y="-15.4" fill="#000" font-family="sans-serif" font-size="14" text-anchor="start">Providers</text><polygon fill="#fb8072" stroke="transparent" points="1250 -10 1250 -30 1270 -30 1270 -10 1250 -10"/><text x="1273.726" y="-15.4" fill="#000" font-family="sans-serif" font-size="14" text-anchor="start">Exports</text><g id="clust1" class="cluster"><title>cluster_HomeModule</title><polygon fill="none" stroke="#000" stroke-dasharray="1 5" points="8 -70 8 -195 2176 -195 2176 -70 8 -70"/></g><g id="clust2" class="cluster"><title>cluster_HomeModule_declarations</title><polygon fill="none" stroke="#000" points="138 -78 138 -130 2168 -130 2168 -78 138 -78"/></g><g id="clust15" class="cluster"><title>cluster_HomeModule_imports</title><polygon fill="none" stroke="#000" points="16 -78 16 -130 130 -130 130 -78 16 -78"/></g><g id="node1" class="node"><title>BrandFilterComponent</title><polygon fill="#ffffb3" stroke="#000" points="2159.874 -122 2014.126 -122 2014.126 -86 2159.874 -86 2159.874 -122"/><text x="2087" y="-99.8" fill="#000" font-family="Times,serif" font-size="14" text-anchor="middle">BrandFilterComponent</text></g><g id="node13" class="node"><title>HomeModule</title><polygon fill="#8dd3c7" stroke="#000" points="1137.762 -187 1134.762 -191 1113.762 -191 1110.762 -187 1044.238 -187 1044.238 -151 1137.762 -151 1137.762 -187"/><text x="1091" y="-164.8" fill="#000" font-family="Times,serif" font-size="14" text-anchor="middle">HomeModule</text></g><g id="edge1" class="edge"><title>BrandFilterComponent-&gt;HomeModule</title><path fill="none" stroke="#000" d="M2087,-122.0908C2087,-145.1328 2087,-182 2087,-182 2087,-182 1148.0356,-182 1148.0356,-182"/><polygon fill="#000" stroke="#000" points="1148.036 -178.5 1138.036 -182 1148.036 -185.5 1148.036 -178.5"/></g><g id="node2" class="node"><title>BreadcrumbComponent</title><polygon fill="#ffffb3" stroke="#000" points="1996.025 -122 1845.975 -122 1845.975 -86 1996.025 -86 1996.025 -122"/><text x="1921" y="-99.8" fill="#000" font-family="Times,serif" font-size="14" text-anchor="middle">BreadcrumbComponent</text></g><g id="edge2" class="edge"><title>BreadcrumbComponent-&gt;HomeModule</title><path fill="none" stroke="#000" d="M1921,-122.0449C1921,-143.6623 1921,-177 1921,-177 1921,-177 1148.0025,-177 1148.0025,-177"/><polygon fill="#000" stroke="#000" points="1148.003 -173.5 1138.003 -177 1148.003 -180.5 1148.003 -173.5"/></g><g id="node3" class="node"><title>CategoriesComponent</title><polygon fill="#ffffb3" stroke="#000" points="1827.699 -122 1686.301 -122 1686.301 -86 1827.699 -86 1827.699 -122"/><text x="1757" y="-99.8" fill="#000" font-family="Times,serif" font-size="14" text-anchor="middle">CategoriesComponent</text></g><g id="edge3" class="edge"><title>CategoriesComponent-&gt;HomeModule</title><path fill="none" stroke="#000" d="M1757,-122.2228C1757,-142.3652 1757,-172 1757,-172 1757,-172 1147.8318,-172 1147.8318,-172"/><polygon fill="#000" stroke="#000" points="1147.832 -168.5 1137.832 -172 1147.832 -175.5 1147.832 -168.5"/></g><g id="node4" class="node"><title>CategoryPageComponent</title><polygon fill="#ffffb3" stroke="#000" points="1667.861 -122 1508.139 -122 1508.139 -86 1667.861 -86 1667.861 -122"/><text x="1588" y="-99.8" fill="#000" font-family="Times,serif" font-size="14" text-anchor="middle">CategoryPageComponent</text></g><g id="edge4" class="edge"><title>CategoryPageComponent-&gt;HomeModule</title><path fill="none" stroke="#000" d="M1588,-122.2222C1588,-140.8285 1588,-167 1588,-167 1588,-167 1148.2046,-167 1148.2046,-167"/><polygon fill="#000" stroke="#000" points="1148.205 -163.5 1138.205 -167 1148.205 -170.5 1148.205 -163.5"/></g><g id="node5" class="node"><title>ContentComponent</title><polygon fill="#ffffb3" stroke="#000" points="1489.665 -122 1364.335 -122 1364.335 -86 1489.665 -86 1489.665 -122"/><text x="1427" y="-99.8" fill="#000" font-family="Times,serif" font-size="14" text-anchor="middle">ContentComponent</text></g><g id="edge5" class="edge"><title>ContentComponent-&gt;HomeModule</title><path fill="none" stroke="#000" d="M1427,-122.0336C1427,-139.0597 1427,-162 1427,-162 1427,-162 1148.0731,-162 1148.0731,-162"/><polygon fill="#000" stroke="#000" points="1148.073 -158.5 1138.073 -162 1148.073 -165.5 1148.073 -158.5"/></g><g id="node6" class="node"><title>ContentHeaderComponent</title><polygon fill="#ffffb3" stroke="#000" points="1346.076 -122 1179.924 -122 1179.924 -86 1346.076 -86 1346.076 -122"/><text x="1263" y="-99.8" fill="#000" font-family="Times,serif" font-size="14" text-anchor="middle">ContentHeaderComponent</text></g><g id="edge6" class="edge"><title>ContentHeaderComponent-&gt;HomeModule</title><path fill="none" stroke="#000" d="M1263,-122.2396C1263,-137.5706 1263,-157 1263,-157 1263,-157 1147.9998,-157 1147.9998,-157"/><polygon fill="#000" stroke="#000" points="1148 -153.5 1138 -157 1148 -160.5 1148 -153.5"/></g><g id="node7" class="node"><title>CustomizeComponent</title><polygon fill="#ffffb3" stroke="#000" points="1161.715 -122 1020.285 -122 1020.285 -86 1161.715 -86 1161.715 -122"/><text x="1091" y="-99.8" fill="#000" font-family="Times,serif" font-size="14" text-anchor="middle">CustomizeComponent</text></g><g id="edge7" class="edge"><title>CustomizeComponent-&gt;HomeModule</title><path fill="none" stroke="#000" d="M1091,-122.1061C1091,-122.1061 1091,-140.991 1091,-140.991"/><polygon fill="#000" stroke="#000" points="1087.5 -140.991 1091 -150.991 1094.5 -140.991 1087.5 -140.991"/></g><g id="node8" class="node"><title>FilterMobileMenuComponent</title><polygon fill="#ffffb3" stroke="#000" points="1002.262 -122 817.738 -122 817.738 -86 1002.262 -86 1002.262 -122"/><text x="910" y="-99.8" fill="#000" font-family="Times,serif" font-size="14" text-anchor="middle">FilterMobileMenuComponent</text></g><g id="edge8" class="edge"><title>FilterMobileMenuComponent-&gt;HomeModule</title><path fill="none" stroke="#000" d="M910,-122.2396C910,-137.5706 910,-157 910,-157 910,-157 1033.9169,-157 1033.9169,-157"/><polygon fill="#000" stroke="#000" points="1033.917 -160.5 1043.917 -157 1033.917 -153.5 1033.917 -160.5"/></g><g id="node9" class="node"><title>FilterSummaryComponent</title><polygon fill="#ffffb3" stroke="#000" points="800.101 -122 633.899 -122 633.899 -86 800.101 -86 800.101 -122"/><text x="717" y="-99.8" fill="#000" font-family="Times,serif" font-size="14" text-anchor="middle">FilterSummaryComponent</text></g><g id="edge9" class="edge"><title>FilterSummaryComponent-&gt;HomeModule</title><path fill="none" stroke="#000" d="M717,-122.0336C717,-139.0597 717,-162 717,-162 717,-162 1034.0113,-162 1034.0113,-162"/><polygon fill="#000" stroke="#000" points="1034.011 -165.5 1044.011 -162 1034.011 -158.5 1034.011 -165.5"/></g><g id="node10" class="node"><title>HomeComponent</title><polygon fill="#ffffb3" stroke="#000" points="615.545 -122 500.455 -122 500.455 -86 615.545 -86 615.545 -122"/><text x="558" y="-99.8" fill="#000" font-family="Times,serif" font-size="14" text-anchor="middle">HomeComponent</text></g><g id="edge10" class="edge"><title>HomeComponent-&gt;HomeModule</title><path fill="none" stroke="#000" d="M558,-122.2222C558,-140.8285 558,-167 558,-167 558,-167 1034.1669,-167 1034.1669,-167"/><polygon fill="#000" stroke="#000" points="1034.167 -170.5 1044.167 -167 1034.167 -163.5 1034.167 -170.5"/></g><g id="node11" class="node"><title>ProductListComponent</title><polygon fill="#ffffb3" stroke="#000" points="482.16 -122 335.84 -122 335.84 -86 482.16 -86 482.16 -122"/><text x="409" y="-99.8" fill="#000" font-family="Times,serif" font-size="14" text-anchor="middle">ProductListComponent</text></g><g id="edge11" class="edge"><title>ProductListComponent-&gt;HomeModule</title><path fill="none" stroke="#000" d="M409,-122.2228C409,-142.3652 409,-172 409,-172 409,-172 1034.1234,-172 1034.1234,-172"/><polygon fill="#000" stroke="#000" points="1034.123 -175.5 1044.123 -172 1034.123 -168.5 1034.123 -175.5"/></g><g id="node12" class="node"><title>ProductListItemComponent</title><polygon fill="#ffffb3" stroke="#000" points="318.316 -122 145.684 -122 145.684 -86 318.316 -86 318.316 -122"/><text x="232" y="-99.8" fill="#000" font-family="Times,serif" font-size="14" text-anchor="middle">ProductListItemComponent</text></g><g id="edge12" class="edge"><title>ProductListItemComponent-&gt;HomeModule</title><path fill="none" stroke="#000" d="M232,-122.0449C232,-143.6623 232,-177 232,-177 232,-177 1034.2064,-177 1034.2064,-177"/><polygon fill="#000" stroke="#000" points="1034.206 -180.5 1044.206 -177 1034.206 -173.5 1034.206 -180.5"/></g><g id="node14" class="node"><title>SharedModule</title><polygon fill="#8dd3c7" stroke="#000" points="122.423 -122 119.423 -126 98.423 -126 95.423 -122 23.577 -122 23.577 -86 122.423 -86 122.423 -122"/><text x="73" y="-99.8" fill="#000" font-family="Times,serif" font-size="14" text-anchor="middle">SharedModule</text></g><g id="edge13" class="edge"><title>SharedModule-&gt;HomeModule</title><path fill="none" stroke="#000" d="M73,-122.0908C73,-145.1328 73,-182 73,-182 73,-182 1033.9414,-182 1033.9414,-182"/><polygon fill="#000" stroke="#000" points="1033.941 -185.5 1043.941 -182 1033.941 -178.5 1033.941 -185.5"/></g></g></svg>