<svg xmlns="http://www.w3.org/2000/svg" xmlns:xlink="http://www.w3.org/1999/xlink" width="1892pt" height="211pt" viewBox="0 0 1892 211"><g id="graph0" class="graph" transform="scale(1 1) rotate(0) translate(4 207)"><title>dependencies</title><polygon fill="#fff" stroke="transparent" points="-4 4 -4 -207 1888 -207 1888 4 -4 4"/><text x="921.009" y="-42.4" fill="#000" font-family="sans-serif" font-size="14" font-weight="bold" text-anchor="start">Legend</text><polygon fill="#ffffb3" stroke="transparent" points="708 -10 708 -30 728 -30 728 -10 708 -10"/><text x="731.629" y="-15.4" fill="#000" font-family="sans-serif" font-size="14" text-anchor="start">Declarations</text><polygon fill="#8dd3c7" stroke="transparent" points="821 -10 821 -30 841 -30 841 -10 821 -10"/><text x="844.725" y="-15.4" fill="#000" font-family="sans-serif" font-size="14" text-anchor="start">Module</text><polygon fill="#80b1d3" stroke="transparent" points="907 -10 907 -30 927 -30 927 -10 907 -10"/><text x="930.781" y="-15.4" fill="#000" font-family="sans-serif" font-size="14" text-anchor="start">Bootstrap</text><polygon fill="#fdb462" stroke="transparent" points="1004 -10 1004 -30 1024 -30 1024 -10 1004 -10"/><text x="1027.673" y="-15.4" fill="#000" font-family="sans-serif" font-size="14" text-anchor="start">Providers</text><polygon fill="#fb8072" stroke="transparent" points="1100 -10 1100 -30 1120 -30 1120 -10 1100 -10"/><text x="1123.726" y="-15.4" fill="#000" font-family="sans-serif" font-size="14" text-anchor="start">Exports</text><g id="clust1" class="cluster"><title>cluster_LandingModule</title><polygon fill="none" stroke="#000" stroke-dasharray="1 5" points="8 -70 8 -195 1876 -195 1876 -70 8 -70"/></g><g id="clust2" class="cluster"><title>cluster_LandingModule_declarations</title><polygon fill="none" stroke="#000" points="308 -78 308 -130 1868 -130 1868 -78 308 -78"/></g><g id="clust13" class="cluster"><title>cluster_LandingModule_imports</title><polygon fill="none" stroke="#000" points="16 -78 16 -130 300 -130 300 -78 16 -78"/></g><g id="node1" class="node"><title>AboutUsComponent</title><polygon fill="#ffffb3" stroke="#000" points="1859.881 -122 1728.119 -122 1728.119 -86 1859.881 -86 1859.881 -122"/><text x="1794" y="-99.8" fill="#000" font-family="Times,serif" font-size="14" text-anchor="middle">AboutUsComponent</text></g><g id="node11" class="node"><title>LandingModule</title><polygon fill="#8dd3c7" stroke="#000" points="995.208 -187 992.208 -191 971.208 -191 968.208 -187 888.792 -187 888.792 -151 995.208 -151 995.208 -187"/><text x="942" y="-164.8" fill="#000" font-family="Times,serif" font-size="14" text-anchor="middle">LandingModule</text></g><g id="edge1" class="edge"><title>AboutUsComponent-&gt;LandingModule</title><path fill="none" stroke="#000" d="M1794,-122.0908C1794,-145.1328 1794,-182 1794,-182 1794,-182 1005.2964,-182 1005.2964,-182"/><polygon fill="#000" stroke="#000" points="1005.297 -178.5 995.296 -182 1005.296 -185.5 1005.297 -178.5"/></g><g id="node2" class="node"><title>BrandsPageComponent</title><polygon fill="#ffffb3" stroke="#000" points="1710.201 -122 1561.799 -122 1561.799 -86 1710.201 -86 1710.201 -122"/><text x="1636" y="-99.8" fill="#000" font-family="Times,serif" font-size="14" text-anchor="middle">BrandsPageComponent</text></g><g id="edge2" class="edge"><title>BrandsPageComponent-&gt;LandingModule</title><path fill="none" stroke="#000" d="M1636,-122.2843C1636,-143.3211 1636,-175 1636,-175 1636,-175 1005.3047,-175 1005.3047,-175"/><polygon fill="#000" stroke="#000" points="1005.305 -171.5 995.305 -175 1005.305 -178.5 1005.305 -171.5"/></g><g id="node3" class="node"><title>FaqPageComponent</title><polygon fill="#ffffb3" stroke="#000" points="1543.542 -122 1414.458 -122 1414.458 -86 1543.542 -86 1543.542 -122"/><text x="1479" y="-99.8" fill="#000" font-family="Times,serif" font-size="14" text-anchor="middle">FaqPageComponent</text></g><g id="edge3" class="edge"><title>FaqPageComponent-&gt;LandingModule</title><path fill="none" stroke="#000" d="M1479,-122.1061C1479,-141.3391 1479,-169 1479,-169 1479,-169 1005.4528,-169 1005.4528,-169"/><polygon fill="#000" stroke="#000" points="1005.453 -165.5 995.453 -169 1005.453 -172.5 1005.453 -165.5"/></g><g id="node4" class="node"><title>LandingComponent</title><polygon fill="#ffffb3" stroke="#000" points="1395.99 -122 1268.01 -122 1268.01 -86 1395.99 -86 1395.99 -122"/><text x="1332" y="-99.8" fill="#000" font-family="Times,serif" font-size="14" text-anchor="middle">LandingComponent</text></g><g id="edge4" class="edge"><title>LandingComponent-&gt;LandingModule</title><path fill="none" stroke="#000" d="M1332,-122.0225C1332,-139.3734 1332,-163 1332,-163 1332,-163 1005.4101,-163 1005.4101,-163"/><polygon fill="#000" stroke="#000" points="1005.41 -159.5 995.41 -163 1005.41 -166.5 1005.41 -159.5"/></g><g id="node5" class="node"><title>LpBannerComponent</title><polygon fill="#ffffb3" stroke="#000" points="1249.812 -122 1112.188 -122 1112.188 -86 1249.812 -86 1249.812 -122"/><text x="1181" y="-99.8" fill="#000" font-family="Times,serif" font-size="14" text-anchor="middle">LpBannerComponent</text></g><g id="edge5" class="edge"><title>LpBannerComponent-&gt;LandingModule</title><path fill="none" stroke="#000" d="M1181,-122.2396C1181,-137.5706 1181,-157 1181,-157 1181,-157 1005.3388,-157 1005.3388,-157"/><polygon fill="#000" stroke="#000" points="1005.339 -153.5 995.339 -157 1005.339 -160.5 1005.339 -153.5"/></g><g id="node6" class="node"><title>LpBrandsComponent</title><polygon fill="#ffffb3" stroke="#000" points="1094.042 -122 957.958 -122 957.958 -86 1094.042 -86 1094.042 -122"/><text x="1026" y="-99.8" fill="#000" font-family="Times,serif" font-size="14" text-anchor="middle">LpBrandsComponent</text></g><g id="edge6" class="edge"><title>LpBrandsComponent-&gt;LandingModule</title><path fill="none" stroke="#000" d="M976.4166,-122.1061C976.4166,-122.1061 976.4166,-140.991 976.4166,-140.991"/><polygon fill="#000" stroke="#000" points="972.917 -140.991 976.417 -150.991 979.917 -140.991 972.917 -140.991"/></g><g id="node7" class="node"><title>LpProductListComponent</title><polygon fill="#ffffb3" stroke="#000" points="940.212 -122 777.788 -122 777.788 -86 940.212 -86 940.212 -122"/><text x="859" y="-99.8" fill="#000" font-family="Times,serif" font-size="14" text-anchor="middle">LpProductListComponent</text></g><g id="edge7" class="edge"><title>LpProductListComponent-&gt;LandingModule</title><path fill="none" stroke="#000" d="M914.5011,-122.1061C914.5011,-122.1061 914.5011,-140.991 914.5011,-140.991"/><polygon fill="#000" stroke="#000" points="911.001 -140.991 914.501 -150.991 918.001 -140.991 911.001 -140.991"/></g><g id="node8" class="node"><title>LpPromoComponent</title><polygon fill="#ffffb3" stroke="#000" points="760.219 -122 625.781 -122 625.781 -86 760.219 -86 760.219 -122"/><text x="693" y="-99.8" fill="#000" font-family="Times,serif" font-size="14" text-anchor="middle">LpPromoComponent</text></g><g id="edge8" class="edge"><title>LpPromoComponent-&gt;LandingModule</title><path fill="none" stroke="#000" d="M693,-122.2396C693,-137.5706 693,-157 693,-157 693,-157 878.8887,-157 878.8887,-157"/><polygon fill="#000" stroke="#000" points="878.889 -160.5 888.889 -157 878.889 -153.5 878.889 -160.5"/></g><g id="node9" class="node"><title>PlItemComponent</title><polygon fill="#ffffb3" stroke="#000" points="608.163 -122 489.837 -122 489.837 -86 608.163 -86 608.163 -122"/><text x="549" y="-99.8" fill="#000" font-family="Times,serif" font-size="14" text-anchor="middle">PlItemComponent</text></g><g id="edge9" class="edge"><title>PlItemComponent-&gt;LandingModule</title><path fill="none" stroke="#000" d="M549,-122.0225C549,-139.3734 549,-163 549,-163 549,-163 878.5893,-163 878.5893,-163"/><polygon fill="#000" stroke="#000" points="878.589 -166.5 888.589 -163 878.589 -159.5 878.589 -166.5"/></g><g id="node10" class="node"><title>ReturnPolicyComponent</title><polygon fill="#ffffb3" stroke="#000" points="471.713 -122 316.287 -122 316.287 -86 471.713 -86 471.713 -122"/><text x="394" y="-99.8" fill="#000" font-family="Times,serif" font-size="14" text-anchor="middle">ReturnPolicyComponent</text></g><g id="edge10" class="edge"><title>ReturnPolicyComponent-&gt;LandingModule</title><path fill="none" stroke="#000" d="M394,-122.1061C394,-141.3391 394,-169 394,-169 394,-169 878.4577,-169 878.4577,-169"/><polygon fill="#000" stroke="#000" points="878.458 -172.5 888.458 -169 878.458 -165.5 878.458 -172.5"/></g><g id="node12" class="node"><title>LandingRoutingModule</title><polygon fill="#8dd3c7" stroke="#000" points="291.826 -122 288.826 -126 267.826 -126 264.826 -122 140.174 -122 140.174 -86 291.826 -86 291.826 -122"/><text x="216" y="-99.8" fill="#000" font-family="Times,serif" font-size="14" text-anchor="middle">LandingRoutingModule</text></g><g id="edge11" class="edge"><title>LandingRoutingModule-&gt;LandingModule</title><path fill="none" stroke="#000" d="M216,-122.2843C216,-143.3211 216,-175 216,-175 216,-175 878.6155,-175 878.6155,-175"/><polygon fill="#000" stroke="#000" points="878.615 -178.5 888.615 -175 878.615 -171.5 878.615 -178.5"/></g><g id="node13" class="node"><title>SharedModule</title><polygon fill="#8dd3c7" stroke="#000" points="122.423 -122 119.423 -126 98.423 -126 95.423 -122 23.577 -122 23.577 -86 122.423 -86 122.423 -122"/><text x="73" y="-99.8" fill="#000" font-family="Times,serif" font-size="14" text-anchor="middle">SharedModule</text></g><g id="edge12" class="edge"><title>SharedModule-&gt;LandingModule</title><path fill="none" stroke="#000" d="M73,-122.0908C73,-145.1328 73,-182 73,-182 73,-182 878.6226,-182 878.6226,-182"/><polygon fill="#000" stroke="#000" points="878.623 -185.5 888.623 -182 878.622 -178.5 878.623 -185.5"/></g></g></svg>