<svg xmlns="http://www.w3.org/2000/svg" xmlns:xlink="http://www.w3.org/1999/xlink" width="2567pt" height="284pt" viewBox="0 0 2567 284"><g id="graph0" class="graph" transform="scale(1 1) rotate(0) translate(4 280)"><title>dependencies</title><polygon fill="#fff" stroke="transparent" points="-4 4 -4 -280 2563 -280 2563 4 -4 4"/><text x="1258.509" y="-42.4" fill="#000" font-family="sans-serif" font-size="14" font-weight="bold" text-anchor="start">Legend</text><polygon fill="#ffffb3" stroke="transparent" points="1045.5 -10 1045.5 -30 1065.5 -30 1065.5 -10 1045.5 -10"/><text x="1069.129" y="-15.4" fill="#000" font-family="sans-serif" font-size="14" text-anchor="start">Declarations</text><polygon fill="#8dd3c7" stroke="transparent" points="1158.5 -10 1158.5 -30 1178.5 -30 1178.5 -10 1158.5 -10"/><text x="1182.225" y="-15.4" fill="#000" font-family="sans-serif" font-size="14" text-anchor="start">Module</text><polygon fill="#80b1d3" stroke="transparent" points="1244.5 -10 1244.5 -30 1264.5 -30 1264.5 -10 1244.5 -10"/><text x="1268.281" y="-15.4" fill="#000" font-family="sans-serif" font-size="14" text-anchor="start">Bootstrap</text><polygon fill="#fdb462" stroke="transparent" points="1341.5 -10 1341.5 -30 1361.5 -30 1361.5 -10 1341.5 -10"/><text x="1365.173" y="-15.4" fill="#000" font-family="sans-serif" font-size="14" text-anchor="start">Providers</text><polygon fill="#fb8072" stroke="transparent" points="1437.5 -10 1437.5 -30 1457.5 -30 1457.5 -10 1437.5 -10"/><text x="1461.226" y="-15.4" fill="#000" font-family="sans-serif" font-size="14" text-anchor="start">Exports</text><g id="clust1" class="cluster"><title>cluster_ProductModule</title><polygon fill="none" stroke="#000" stroke-dasharray="1 5" points="8 -70 8 -268 2551 -268 2551 -70 8 -70"/></g><g id="clust2" class="cluster"><title>cluster_ProductModule_declarations</title><polygon fill="none" stroke="#000" points="478 -78 478 -130 2543 -130 2543 -78 478 -78"/></g><g id="clust14" class="cluster"><title>cluster_ProductModule_imports</title><polygon fill="none" stroke="#000" points="190 -78 190 -130 470 -130 470 -78 190 -78"/></g><g id="clust15" class="cluster"><title>cluster_ProductModule_exports</title><polygon fill="none" stroke="#000" points="591 -208 591 -260 1954 -260 1954 -208 591 -208"/></g><g id="clust17" class="cluster"><title>cluster_ProductModule_providers</title><polygon fill="none" stroke="#000" points="16 -78 16 -130 182 -130 182 -78 16 -78"/></g><g id="node1" class="node"><title>CheckPincodeComponent</title><polygon fill="#ffffb3" stroke="#000" points="2535.201 -122 2372.799 -122 2372.799 -86 2535.201 -86 2535.201 -122"/><text x="2454" y="-99.8" fill="#000" font-family="Times,serif" font-size="14" text-anchor="middle">CheckPincodeComponent</text></g><g id="node12" class="node"><title>ProductModule</title><polygon fill="#8dd3c7" stroke="#000" points="1313.598 -187 1310.598 -191 1289.598 -191 1286.598 -187 1210.402 -187 1210.402 -151 1313.598 -151 1313.598 -187"/><text x="1262" y="-164.8" fill="#000" font-family="Times,serif" font-size="14" text-anchor="middle">ProductModule</text></g><g id="edge1" class="edge"><title>CheckPincodeComponent-&gt;ProductModule</title><path fill="none" stroke="#000" d="M2454,-122.1289C2454,-142.5724 2454,-173 2454,-173 2454,-173 1323.6013,-173 1323.6013,-173"/><polygon fill="#000" stroke="#000" points="1323.601 -169.5 1313.601 -173 1323.601 -176.5 1323.601 -169.5"/></g><g id="node2" class="node"><title>ProductComponent</title><polygon fill="#ffffb3" stroke="#000" points="2354.381 -122 2229.619 -122 2229.619 -86 2354.381 -86 2354.381 -122"/><text x="2292" y="-99.8" fill="#000" font-family="Times,serif" font-size="14" text-anchor="middle">ProductComponent</text></g><g id="edge2" class="edge"><title>ProductComponent-&gt;ProductModule</title><path fill="none" stroke="#000" d="M2292,-122.1061C2292,-141.3391 2292,-169 2292,-169 2292,-169 1323.7837,-169 1323.7837,-169"/><polygon fill="#000" stroke="#000" points="1323.784 -165.5 1313.784 -169 1323.784 -172.5 1323.784 -165.5"/></g><g id="node3" class="node"><title>ProductCountComponent</title><polygon fill="#ffffb3" stroke="#000" points="2211.608 -122 2052.392 -122 2052.392 -86 2211.608 -86 2211.608 -122"/><text x="2132" y="-99.8" fill="#000" font-family="Times,serif" font-size="14" text-anchor="middle">ProductCountComponent</text></g><g id="edge3" class="edge"><title>ProductCountComponent-&gt;ProductModule</title><path fill="none" stroke="#000" d="M2132,-122.2667C2132,-140.5552 2132,-166 2132,-166 2132,-166 1323.817,-166 1323.817,-166"/><polygon fill="#000" stroke="#000" points="1323.817 -162.5 1313.817 -166 1323.817 -169.5 1323.817 -162.5"/></g><g id="node4" class="node"><title>ProductDescriptionComponent</title><polygon fill="#ffffb3" stroke="#000" points="2034.194 -122 1843.806 -122 1843.806 -86 2034.194 -86 2034.194 -122"/><text x="1939" y="-99.8" fill="#000" font-family="Times,serif" font-size="14" text-anchor="middle">ProductDescriptionComponent</text></g><g id="edge4" class="edge"><title>ProductDescriptionComponent-&gt;ProductModule</title><path fill="none" stroke="#000" d="M1895.1036,-122.0336C1895.1036,-139.0597 1895.1036,-162 1895.1036,-162 1895.1036,-162 1323.8095,-162 1323.8095,-162"/><polygon fill="#000" stroke="#000" points="1323.81 -158.5 1313.81 -162 1323.81 -165.5 1323.81 -158.5"/></g><g id="node5" class="node"><title>ProductDetailPageComponent</title><polygon fill="#ffffb3" stroke="#000" points="1826.3 -122 1639.7 -122 1639.7 -86 1826.3 -86 1826.3 -122"/><text x="1733" y="-99.8" fill="#000" font-family="Times,serif" font-size="14" text-anchor="middle">ProductDetailPageComponent</text></g><g id="edge5" class="edge"><title>ProductDetailPageComponent-&gt;ProductModule</title><path fill="none" stroke="#000" d="M1702.8484,-122.0091C1702.8484,-138.0494 1702.8484,-159 1702.8484,-159 1702.8484,-159 1323.8673,-159 1323.8673,-159"/><polygon fill="#000" stroke="#000" points="1323.867 -155.5 1313.867 -159 1323.867 -162.5 1323.867 -155.5"/></g><g id="node6" class="node"><title>ProductDetailsComponent</title><polygon fill="#ffffb3" stroke="#000" points="1622.034 -122 1457.966 -122 1457.966 -86 1622.034 -86 1622.034 -122"/><text x="1540" y="-99.8" fill="#000" font-family="Times,serif" font-size="14" text-anchor="middle">ProductDetailsComponent</text></g><g id="edge6" class="edge"><title>ProductDetailsComponent-&gt;ProductModule</title><path fill="none" stroke="#000" d="M1505.8168,-122.1243C1505.8168,-136.7832 1505.8168,-155 1505.8168,-155 1505.8168,-155 1323.7073,-155 1323.7073,-155"/><polygon fill="#000" stroke="#000" points="1323.707 -151.5 1313.707 -155 1323.707 -158.5 1323.707 -151.5"/></g><g id="node7" class="node"><title>ProductImagesComponent</title><polygon fill="#ffffb3" stroke="#000" points="1439.806 -122 1274.194 -122 1274.194 -86 1439.806 -86 1439.806 -122"/><text x="1357" y="-99.8" fill="#000" font-family="Times,serif" font-size="14" text-anchor="middle">ProductImagesComponent</text></g><g id="edge7" class="edge"><title>ProductImagesComponent-&gt;ProductModule</title><path fill="none" stroke="#000" d="M1293.9481,-122.1061C1293.9481,-122.1061 1293.9481,-140.991 1293.9481,-140.991"/><polygon fill="#000" stroke="#000" points="1290.448 -140.991 1293.948 -150.991 1297.448 -140.991 1290.448 -140.991"/></g><g id="node8" class="node"><title>ProductPriceInfoComponent</title><polygon fill="#ffffb3" stroke="#000" points="1256.465 -122 1079.535 -122 1079.535 -86 1256.465 -86 1256.465 -122"/><text x="1168" y="-99.8" fill="#000" font-family="Times,serif" font-size="14" text-anchor="middle">ProductPriceInfoComponent</text></g><g id="edge8" class="edge"><title>ProductPriceInfoComponent-&gt;ProductModule</title><path fill="none" stroke="#000" d="M1233.4667,-122.1061C1233.4667,-122.1061 1233.4667,-140.991 1233.4667,-140.991"/><polygon fill="#000" stroke="#000" points="1229.967 -140.991 1233.467 -150.991 1236.967 -140.991 1229.967 -140.991"/></g><g id="node9" class="node"><title>ProductReviewComponent</title><polygon fill="#ffffb3" stroke="#000" points="1061.644 -122 894.356 -122 894.356 -86 1061.644 -86 1061.644 -122"/><text x="978" y="-99.8" fill="#000" font-family="Times,serif" font-size="14" text-anchor="middle">ProductReviewComponent</text></g><g id="edge9" class="edge"><title>ProductReviewComponent-&gt;ProductModule</title><path fill="none" stroke="#000" d="M1026.7095,-122.1243C1026.7095,-136.7832 1026.7095,-155 1026.7095,-155 1026.7095,-155 1200.3645,-155 1200.3645,-155"/><polygon fill="#000" stroke="#000" points="1200.364 -158.5 1210.364 -155 1200.364 -151.5 1200.364 -158.5"/></g><g id="node10" class="node"><title>ProductVariantsComponent</title><polygon fill="#ffffb3" stroke="#000" points="876.303 -122 703.697 -122 703.697 -86 876.303 -86 876.303 -122"/><text x="790" y="-99.8" fill="#000" font-family="Times,serif" font-size="14" text-anchor="middle">ProductVariantsComponent</text></g><g id="edge10" class="edge"><title>ProductVariantsComponent-&gt;ProductModule</title><path fill="none" stroke="#000" d="M834.4595,-122.0091C834.4595,-138.0494 834.4595,-159 834.4595,-159 834.4595,-159 1200.4286,-159 1200.4286,-159"/><polygon fill="#000" stroke="#000" points="1200.429 -162.5 1210.429 -159 1200.429 -155.5 1200.429 -162.5"/></g><g id="node11" class="node"><title>WriteProductReviewComponent</title><polygon fill="#ffffb3" stroke="#000" points="685.515 -122 486.485 -122 486.485 -86 685.515 -86 685.515 -122"/><text x="586" y="-99.8" fill="#000" font-family="Times,serif" font-size="14" text-anchor="middle">WriteProductReviewComponent</text></g><g id="edge11" class="edge"><title>WriteProductReviewComponent-&gt;ProductModule</title><path fill="none" stroke="#000" d="M642.428,-122.0336C642.428,-139.0597 642.428,-162 642.428,-162 642.428,-162 1200.2413,-162 1200.2413,-162"/><polygon fill="#000" stroke="#000" points="1200.241 -165.5 1210.241 -162 1200.241 -158.5 1200.241 -165.5"/></g><g id="node15" class="node"><title>ProductCountComponent</title><polygon fill="#fb8072" stroke="#000" points="1946.109 -252 1783.891 -252 1783.891 -216 1946.109 -216 1946.109 -252"/><text x="1865" y="-229.8" fill="#000" font-family="Times,serif" font-size="14" text-anchor="middle">ProductCountComponent</text></g><g id="edge14" class="edge"><title>ProductModule-&gt;ProductCountComponent</title><path fill="none" stroke="#000" stroke-dasharray="5 2" d="M1313.5664,-177C1449.0891,-177 1804.9231,-177 1804.9231,-177 1804.9231,-177 1804.9231,-205.9648 1804.9231,-205.9648"/><polygon fill="#000" stroke="#000" points="1801.423 -205.965 1804.923 -215.965 1808.423 -205.965 1801.423 -205.965"/></g><g id="node16" class="node"><title>ProductDescriptionComponent</title><polygon fill="#fb8072" stroke="#000" points="1765.694 -252 1572.306 -252 1572.306 -216 1765.694 -216 1765.694 -252"/><text x="1669" y="-229.8" fill="#000" font-family="Times,serif" font-size="14" text-anchor="middle">ProductDescriptionComponent</text></g><g id="edge15" class="edge"><title>ProductModule-&gt;ProductDescriptionComponent</title><path fill="none" stroke="#000" stroke-dasharray="5 2" d="M1313.6419,-180C1407.671,-180 1597.2099,-180 1597.2099,-180 1597.2099,-180 1597.2099,-205.7181 1597.2099,-205.7181"/><polygon fill="#000" stroke="#000" points="1593.71 -205.718 1597.21 -215.718 1600.71 -205.718 1593.71 -205.718"/></g><g id="node17" class="node"><title>ProductDetailPageComponent</title><polygon fill="#fb8072" stroke="#000" points="1553.8 -252 1364.2 -252 1364.2 -216 1553.8 -216 1553.8 -252"/><text x="1459" y="-229.8" fill="#000" font-family="Times,serif" font-size="14" text-anchor="middle">ProductDetailPageComponent</text></g><g id="edge16" class="edge"><title>ProductModule-&gt;ProductDetailPageComponent</title><path fill="none" stroke="#000" stroke-dasharray="5 2" d="M1313.6874,-184C1353.533,-184 1401.8764,-184 1401.8764,-184 1401.8764,-184 1401.8764,-205.9489 1401.8764,-205.9489"/><polygon fill="#000" stroke="#000" points="1398.377 -205.949 1401.876 -215.949 1405.377 -205.949 1398.377 -205.949"/></g><g id="node18" class="node"><title>ProductDetailsComponent</title><polygon fill="#fb8072" stroke="#000" points="1346.033 -252 1177.967 -252 1177.967 -216 1346.033 -216 1346.033 -252"/><text x="1262" y="-229.8" fill="#000" font-family="Times,serif" font-size="14" text-anchor="middle">ProductDetailsComponent</text></g><g id="edge17" class="edge"><title>ProductModule-&gt;ProductDetailsComponent</title><path fill="none" stroke="#000" stroke-dasharray="5 2" d="M1262,-187.1061C1262,-187.1061 1262,-205.991 1262,-205.991"/><polygon fill="#000" stroke="#000" points="1258.5 -205.991 1262 -215.991 1265.5 -205.991 1258.5 -205.991"/></g><g id="node19" class="node"><title>ProductImagesComponent</title><polygon fill="#fb8072" stroke="#000" points="1160.306 -252 991.694 -252 991.694 -216 1160.306 -216 1160.306 -252"/><text x="1076" y="-229.8" fill="#000" font-family="Times,serif" font-size="14" text-anchor="middle">ProductImagesComponent</text></g><g id="edge18" class="edge"><title>ProductModule-&gt;ProductImagesComponent</title><path fill="none" stroke="#000" stroke-dasharray="5 2" d="M1210.3186,-184C1169.7059,-184 1119.9602,-184 1119.9602,-184 1119.9602,-184 1119.9602,-205.9489 1119.9602,-205.9489"/><polygon fill="#000" stroke="#000" points="1116.46 -205.949 1119.96 -215.949 1123.46 -205.949 1116.46 -205.949"/></g><g id="node20" class="node"><title>ProductPriceInfoComponent</title><polygon fill="#fb8072" stroke="#000" points="973.466 -252 792.534 -252 792.534 -216 973.466 -216 973.466 -252"/><text x="883" y="-229.8" fill="#000" font-family="Times,serif" font-size="14" text-anchor="middle">ProductPriceInfoComponent</text></g><g id="edge19" class="edge"><title>ProductModule-&gt;ProductPriceInfoComponent</title><path fill="none" stroke="#000" stroke-dasharray="5 2" d="M1210.3428,-180C1117.8905,-180 933.7053,-180 933.7053,-180 933.7053,-180 933.7053,-205.7181 933.7053,-205.7181"/><polygon fill="#000" stroke="#000" points="930.205 -205.718 933.705 -215.718 937.205 -205.718 930.205 -205.718"/></g><g id="node21" class="node"><title>ProductVariantsComponent</title><polygon fill="#fb8072" stroke="#000" points="774.803 -252 599.197 -252 599.197 -216 774.803 -216 774.803 -252"/><text x="687" y="-229.8" fill="#000" font-family="Times,serif" font-size="14" text-anchor="middle">ProductVariantsComponent</text></g><g id="edge20" class="edge"><title>ProductModule-&gt;ProductVariantsComponent</title><path fill="none" stroke="#000" stroke-dasharray="5 2" d="M1209.978,-177C1077.7862,-177 739.375,-177 739.375,-177 739.375,-177 739.375,-205.9648 739.375,-205.9648"/><polygon fill="#000" stroke="#000" points="735.875 -205.965 739.375 -215.965 742.875 -205.965 735.875 -205.965"/></g><g id="node13" class="node"><title>ProductRoutingModule</title><polygon fill="#8dd3c7" stroke="#000" points="462.216 -122 459.216 -126 438.216 -126 435.216 -122 313.784 -122 313.784 -86 462.216 -86 462.216 -122"/><text x="388" y="-99.8" fill="#000" font-family="Times,serif" font-size="14" text-anchor="middle">ProductRoutingModule</text></g><g id="edge12" class="edge"><title>ProductRoutingModule-&gt;ProductModule</title><path fill="none" stroke="#000" d="M388,-122.2667C388,-140.5552 388,-166 388,-166 388,-166 1200.2679,-166 1200.2679,-166"/><polygon fill="#000" stroke="#000" points="1200.268 -169.5 1210.268 -166 1200.268 -162.5 1200.268 -169.5"/></g><g id="node14" class="node"><title>SharedModule</title><polygon fill="#8dd3c7" stroke="#000" points="296.423 -122 293.423 -126 272.423 -126 269.423 -122 197.577 -122 197.577 -86 296.423 -86 296.423 -122"/><text x="247" y="-99.8" fill="#000" font-family="Times,serif" font-size="14" text-anchor="middle">SharedModule</text></g><g id="edge13" class="edge"><title>SharedModule-&gt;ProductModule</title><path fill="none" stroke="#000" d="M247,-122.1061C247,-141.3391 247,-169 247,-169 247,-169 1200.2706,-169 1200.2706,-169"/><polygon fill="#000" stroke="#000" points="1200.271 -172.5 1210.271 -169 1200.271 -165.5 1200.271 -172.5"/></g><g id="node22" class="node"><title>ProductResolver</title><ellipse cx="99" cy="-104" fill="#fdb462" stroke="#000" rx="75.3" ry="18"/><text x="99" y="-99.8" fill="#000" font-family="Times,serif" font-size="14" text-anchor="middle">ProductResolver</text></g><g id="edge21" class="edge"><title>ProductResolver-&gt;ProductModule</title><path fill="none" stroke="#000" d="M99,-122.1289C99,-142.5724 99,-173 99,-173 99,-173 1200.1485,-173 1200.1485,-173"/><polygon fill="#000" stroke="#000" points="1200.149 -176.5 1210.149 -173 1200.148 -169.5 1200.149 -176.5"/></g></g></svg>